<svg xmlns="http://www.w3.org/2000/svg" xmlns:xlink="http://www.w3.org/1999/xlink" width="92.729" height="122.638" viewBox="0 0 92.729 122.638"><defs><radialGradient id="a" cx="0.499" cy="0.478" r="5.544" gradientTransform="matrix(0.064, 0, 0, -0.093, -5.128, -1063.036)" gradientUnits="objectBoundingBox"><stop offset="0" stop-color="#424143"/><stop offset="1" stop-color="#424143" stop-opacity="0"/></radialGradient><radialGradient id="b" cx="0.5" cy="0.478" r="5.538" gradientTransform="matrix(0.064, 0, 0, -0.093, -4.672, -1063.036)" xlink:href="#a"/><radialGradient id="c" cx="0.5" cy="0.591" r="15.257" gradientTransform="matrix(0.023, 0, 0, -0.031, -15.491, -3073.622)" xlink:href="#a"/><linearGradient id="d" x1="-10.311" y1="3.734" x2="-9.31" y2="3.734" gradientUnits="objectBoundingBox"><stop offset="0" stop-color="#1a1a1a"/><stop offset="1" stop-color="#010101"/></linearGradient><linearGradient id="e" x1="-39.903" y1="14.976" x2="-38.905" y2="14.976" gradientUnits="objectBoundingBox"><stop offset="0" stop-color="#676767"/><stop offset="1" stop-color="#010101"/></linearGradient><linearGradient id="f" x1="-17.501" y1="2.058" x2="-16.488" y2="2.058" xlink:href="#d"/><linearGradient id="g" x1="-27.921" y1="14.667" x2="-26.925" y2="14.723" xlink:href="#e"/><linearGradient id="h" x1="-36.385" y1="26.202" x2="-35.385" y2="26.275" xlink:href="#e"/><linearGradient id="i" x1="-26.514" y1="9.769" x2="-25.503" y2="9.801" xlink:href="#e"/><linearGradient id="j" x1="-66.54" y1="12.839" x2="-65.377" y2="12.739" gradientUnits="objectBoundingBox"><stop offset="0" stop-color="#b4b4b4"/><stop offset="0.495" stop-color="#676767"/><stop offset="1" stop-color="#010101"/></linearGradient><linearGradient id="k" x1="-66.532" y1="12.839" x2="-65.369" y2="12.739" xlink:href="#j"/><linearGradient id="l" x1="-71.58" y1="-292.672" x2="-70.714" y2="-293.012" xlink:href="#j"/><linearGradient id="m" x1="-71.602" y1="-292.933" x2="-70.736" y2="-293.273" xlink:href="#j"/><linearGradient id="n" x1="-29.763" y1="42.84" x2="-28.793" y2="42.098" xlink:href="#j"/><linearGradient id="o" x1="-29.761" y1="43.167" x2="-28.79" y2="42.425" xlink:href="#j"/><linearGradient id="p" x1="-28.103" y1="5.546" x2="-27.089" y2="5.564" xlink:href="#e"/><linearGradient id="q" x1="-21.965" y1="31.689" x2="-21.141" y2="31.281" gradientUnits="objectBoundingBox"><stop offset="0" stop-color="#8dc641"/><stop offset="0.5" stop-color="#bad642"/><stop offset="1" stop-color="#415a29"/></linearGradient><linearGradient id="r" x1="-45.66" y1="35.163" x2="-44.656" y2="35.163" xlink:href="#e"/><linearGradient id="s" x1="-26.88" y1="17.45" x2="-25.827" y2="17.45" xlink:href="#e"/><linearGradient id="t" x1="-29.008" y1="18.63" x2="-27.963" y2="18.63" xlink:href="#e"/><linearGradient id="u" x1="-33.065" y1="21.569" x2="-31.998" y2="21.569" xlink:href="#e"/><linearGradient id="v" x1="-37.351" y1="24.13" x2="-36.294" y2="24.13" xlink:href="#e"/><linearGradient id="w" x1="-422.016" y1="2097.597" x2="-421.354" y2="2097.597" xlink:href="#e"/><radialGradient id="x" cx="0.056" cy="-0.312" r="1.385" gradientTransform="matrix(0.518, 0.594, 0.382, -0.805, -1390.287, 5904.065)" xlink:href="#q"/><linearGradient id="y" x1="-405.11" y1="1880.255" x2="-404.386" y2="1880.255" xlink:href="#e"/><radialGradient id="z" cx="0.082" cy="-0.166" r="1.053" gradientTransform="matrix(0.7, 0.532, 0.44, -0.847, -1035.257, 4113.016)" xlink:href="#q"/><linearGradient id="aa" x1="-403.994" y1="1873.081" x2="-403.271" y2="1873.081" xlink:href="#e"/><radialGradient id="ab" cx="0.035" cy="-0.132" r="1.1" gradientTransform="matrix(0.668, 0.532, 0.42, -0.847, -1043.097, 4289.792)" xlink:href="#q"/><linearGradient id="ac" x1="-403.355" y1="1719.664" x2="-402.63" y2="1719.664" xlink:href="#e"/><radialGradient id="ad" cx="0.103" cy="-0.102" r="1.104" gradientTransform="matrix(0.668, 0.532, 0.42, -0.847, -1040.441, 4282.093)" xlink:href="#q"/><linearGradient id="ae" x1="-100.31" y1="67.44" x2="-99.198" y2="67.44" xlink:href="#e"/><linearGradient id="af" x1="-29.026" y1="18.398" x2="-28.024" y2="18.398" gradientUnits="objectBoundingBox"><stop offset="0" stop-color="#efc7b1"/><stop offset="1" stop-color="#cfa38c"/></linearGradient><linearGradient id="ag" x1="-81.806" y1="24.822" x2="-79.042" y2="24.822" xlink:href="#af"/><linearGradient id="ah" x1="-109.445" y1="38.085" x2="-108.412" y2="38.085" xlink:href="#af"/><linearGradient id="ai" x1="-113.119" y1="71.508" x2="-111.953" y2="71.508" xlink:href="#af"/><linearGradient id="aj" x1="-2696.734" y1="128.073" x2="-2694.802" y2="128.073" xlink:href="#af"/><linearGradient id="ak" x1="-71.568" y1="38.01" x2="-69.247" y2="38.01" xlink:href="#af"/><linearGradient id="al" x1="-82.466" y1="38.232" x2="-80.069" y2="38.232" xlink:href="#af"/><linearGradient id="am" x1="-127.722" y1="47.567" x2="-123.36" y2="47.567" xlink:href="#af"/><linearGradient id="an" x1="-26.007" y1="13.256" x2="-25.011" y2="13.256" gradientUnits="objectBoundingBox"><stop offset="0" stop-color="#4e4e4e"/><stop offset="1" stop-color="#010101"/></linearGradient><linearGradient id="ao" x1="-35.284" y1="14.889" x2="-34.284" y2="14.889" xlink:href="#an"/><linearGradient id="ap" x1="-32.594" y1="16.403" x2="-31.593" y2="16.403" gradientUnits="objectBoundingBox"><stop offset="0" stop-color="#fff"/><stop offset="1" stop-color="#fff" stop-opacity="0"/></linearGradient><linearGradient id="aq" x1="-63.173" y1="19.744" x2="-62.175" y2="19.744" xlink:href="#ap"/><linearGradient id="ar" x1="-23.674" y1="5.095" x2="-22.674" y2="5.095" xlink:href="#an"/><linearGradient id="as" x1="-61.129" y1="40.807" x2="-60.14" y2="40.807" xlink:href="#an"/><linearGradient id="at" x1="-8.784" y1="4.719" x2="-7.784" y2="4.719" xlink:href="#an"/><linearGradient id="au" x1="-8.758" y1="10.165" x2="-7.761" y2="10.165" xlink:href="#an"/><linearGradient id="av" x1="-44.894" y1="20.281" x2="-43.895" y2="20.281" gradientUnits="objectBoundingBox"><stop offset="0" stop-color="#010101"/><stop offset="1" stop-color="#010101" stop-opacity="0"/></linearGradient><linearGradient id="aw" x1="-13.737" y1="12.988" x2="-12.737" y2="12.988" gradientUnits="objectBoundingBox"><stop offset="0" stop-color="#fff" stop-opacity="0"/><stop offset="1" stop-color="#fff"/></linearGradient><linearGradient id="ax" x1="-14.324" y1="13.088" x2="-13.321" y2="13.088" xlink:href="#av"/><linearGradient id="ay" x1="-9.427" y1="15.253" x2="-8.427" y2="15.253" xlink:href="#af"/><linearGradient id="az" x1="-9.499" y1="15.79" x2="-8.492" y2="15.79" xlink:href="#af"/><linearGradient id="ba" x1="-9.368" y1="14.994" x2="-8.365" y2="14.994" gradientUnits="objectBoundingBox"><stop offset="0" stop-color="#010101"/><stop offset="0.995" stop-color="#333"/></linearGradient><linearGradient id="bb" x1="-16.204" y1="10.829" x2="-15.204" y2="10.829" xlink:href="#aw"/><linearGradient id="bc" x1="-302.665" y1="113.508" x2="-301.698" y2="113.508" xlink:href="#an"/><linearGradient id="bd" x1="-30.02" y1="13.324" x2="-29.47" y2="12.84" gradientUnits="objectBoundingBox"><stop offset="0" stop-color="#010101" stop-opacity="0"/><stop offset="1" stop-color="#4e4e4e"/></linearGradient><linearGradient id="be" x1="-157.364" y1="143.362" x2="-156.317" y2="143.362" gradientUnits="objectBoundingBox"><stop offset="0" stop-color="#d9e028"/><stop offset="0.979" stop-color="#8dc641"/></linearGradient><linearGradient id="bf" x1="-195.001" y1="169.368" x2="-194.016" y2="169.368" gradientUnits="objectBoundingBox"><stop offset="0.016" stop-color="#4e4e4e"/><stop offset="1" stop-color="#010101"/></linearGradient><linearGradient id="bg" x1="-157.385" y1="135.836" x2="-156.338" y2="135.836" gradientUnits="objectBoundingBox"><stop offset="0" stop-color="#d9e028"/><stop offset="0.984" stop-color="#8dc641"/></linearGradient><linearGradient id="bh" x1="-194.922" y1="160.566" x2="-193.937" y2="160.566" xlink:href="#bf"/><linearGradient id="bi" x1="-258.562" y1="301.366" x2="-257.688" y2="301.366" xlink:href="#bg"/><linearGradient id="bj" x1="-292.209" y1="695.956" x2="-291.459" y2="695.956" xlink:href="#bf"/><linearGradient id="bk" x1="-434.804" y1="395.261" x2="-433.821" y2="395.261" xlink:href="#bg"/><linearGradient id="bl" x1="-510.006" y1="628.82" x2="-509.132" y2="628.82" xlink:href="#bf"/><linearGradient id="bm" x1="-36.388" y1="19.339" x2="-35.388" y2="19.339" xlink:href="#aw"/><linearGradient id="bn" x1="-52.502" y1="6.47" x2="-51.5" y2="6.47" gradientUnits="objectBoundingBox"><stop offset="0.005" stop-color="#f3f3f3"/><stop offset="1" stop-color="#010101" stop-opacity="0"/></linearGradient><linearGradient id="bo" x1="-44.465" y1="90.051" x2="-43.479" y2="90.051" gradientUnits="objectBoundingBox"><stop offset="0" stop-color="#fff"/><stop offset="1" stop-color="#010101"/></linearGradient><linearGradient id="bp" x1="-26.42" y1="21.192" x2="-25.421" y2="21.192" xlink:href="#bo"/><linearGradient id="bq" x1="-15.04" y1="42.661" x2="-14.04" y2="42.661" xlink:href="#j"/><linearGradient id="br" x1="-21.56" y1="44.446" x2="-20.56" y2="44.446" gradientUnits="objectBoundingBox"><stop offset="0" stop-color="#010101"/><stop offset="1" stop-color="#4e4e4e" stop-opacity="0"/></linearGradient><linearGradient id="bs" x1="-21.978" y1="36.608" x2="-20.978" y2="36.608" gradientUnits="objectBoundingBox"><stop offset="0" stop-color="#989898"/><stop offset="1" stop-color="#010101" stop-opacity="0"/></linearGradient><radialGradient id="bt" cx="0.524" cy="0.303" r="0.455" gradientTransform="matrix(0.966, -0.075, -0.072, -0.997, 0.283, 21.735)" gradientUnits="objectBoundingBox"><stop offset="0" stop-color="#efc7b1"/><stop offset="0.994" stop-color="#cfa38c" stop-opacity="0"/></radialGradient><linearGradient id="bu" x1="-26.398" y1="49.332" x2="-27.114" y2="48.81" gradientUnits="objectBoundingBox"><stop offset="0" stop-color="#efc7b1"/><stop offset="1" stop-color="#cfa38c" stop-opacity="0"/></linearGradient><radialGradient id="bv" cx="0.476" cy="0.303" r="0.455" gradientTransform="matrix(-0.966, -0.075, 0.072, -0.997, 21.014, 19.408)" xlink:href="#bt"/><linearGradient id="bw" x1="22.052" y1="39.172" x2="21.336" y2="38.65" xlink:href="#bu"/><linearGradient id="bx" x1="-29.952" y1="36.703" x2="-30.808" y2="36.44" xlink:href="#e"/><linearGradient id="by" x1="-49.58" y1="19.74" x2="-48.575" y2="19.74" gradientUnits="objectBoundingBox"><stop offset="0" stop-color="#333"/><stop offset="1" stop-color="#010101"/></linearGradient><linearGradient id="bz" x1="-58.765" y1="23.007" x2="-57.765" y2="23.007" xlink:href="#by"/><linearGradient id="ca" x1="-73.923" y1="27.908" x2="-72.898" y2="27.908" xlink:href="#by"/><linearGradient id="cb" x1="-105.081" y1="265.592" x2="-104.113" y2="265.592" xlink:href="#by"/><radialGradient id="cc" cx="0.744" cy="0.262" r="0.513" gradientTransform="matrix(1, 0, 0, -1, 0, 34.135)" gradientUnits="objectBoundingBox"><stop offset="0" stop-color="#8dc641"/><stop offset="0.995" stop-color="#587b37"/></radialGradient><linearGradient id="cd" x1="-17.792" y1="18.667" x2="-17.851" y2="18.8" gradientUnits="objectBoundingBox"><stop offset="0" stop-color="#010101"/><stop offset="1" stop-color="#4e4e4e"/></linearGradient><linearGradient id="ce" x1="-188.736" y1="113.839" x2="-189.046" y2="114.65" gradientUnits="objectBoundingBox"><stop offset="0" stop-color="#818181"/><stop offset="1" stop-color="#f3f3f3"/></linearGradient><linearGradient id="cf" x1="-188.734" y1="114.63" x2="-189.044" y2="115.443" xlink:href="#ce"/><linearGradient id="cg" x1="-188.734" y1="115.422" x2="-189.044" y2="116.235" xlink:href="#ce"/><linearGradient id="ch" x1="-188.727" y1="120.864" x2="-189.036" y2="121.705" xlink:href="#ce"/><linearGradient id="ci" x1="-188.725" y1="121.931" x2="-189.035" y2="122.773" xlink:href="#ce"/><linearGradient id="cj" x1="-188.725" y1="123.043" x2="-189.035" y2="123.884" xlink:href="#ce"/><linearGradient id="ck" x1="-188.725" y1="124.15" x2="-189.036" y2="124.992" xlink:href="#ce"/><linearGradient id="cl" x1="-188.725" y1="125.291" x2="-189.035" y2="126.132" xlink:href="#ce"/><linearGradient id="cm" x1="-188.74" y1="122.057" x2="-189.05" y2="122.869" xlink:href="#ce"/><linearGradient id="cn" x1="-188.74" y1="119.444" x2="-189.049" y2="120.231" xlink:href="#ce"/><linearGradient id="co" x1="-188.74" y1="124.162" x2="-189.049" y2="124.973" xlink:href="#ce"/><linearGradient id="cp" x1="-188.716" y1="129.885" x2="-189.026" y2="130.726" xlink:href="#ce"/><linearGradient id="cq" x1="-188.732" y1="122.849" x2="-189.042" y2="123.636" xlink:href="#ce"/><linearGradient id="cr" x1="-188.732" y1="132.389" x2="-189.042" y2="133.23" xlink:href="#ce"/><linearGradient id="cs" x1="-188.732" y1="133.753" x2="-189.043" y2="134.595" xlink:href="#ce"/><linearGradient id="ct" x1="-188.006" y1="8.198" x2="-187.002" y2="8.198" gradientUnits="objectBoundingBox"><stop offset="0.005" stop-color="#587b37"/><stop offset="0.478" stop-color="#8dc641"/><stop offset="0.763" stop-color="#9ec63e"/><stop offset="0.989" stop-color="#8dc641"/></linearGradient><linearGradient id="cu" x1="-208.106" y1="5.904" x2="-208.106" y2="4.959" xlink:href="#ct"/><linearGradient id="cv" x1="-34.386" y1="63.581" x2="-33.749" y2="62.755" xlink:href="#q"/><linearGradient id="cw" x1="-196.119" y1="57.237" x2="-195.724" y2="56.533" xlink:href="#q"/><linearGradient id="cx" x1="-280.443" y1="54.719" x2="-280.486" y2="53.993" xlink:href="#q"/><linearGradient id="cy" x1="-109.573" y1="53.822" x2="-109.072" y2="53.031" xlink:href="#q"/><linearGradient id="cz" x1="-80.934" y1="49.592" x2="-80.425" y2="48.834" xlink:href="#q"/><linearGradient id="da" x1="-44.685" y1="9.302" x2="-44.043" y2="8.634" gradientUnits="objectBoundingBox"><stop offset="0" stop-color="#989898"/><stop offset="0.425" stop-color="#cdcccc"/><stop offset="0.521" stop-color="#a9a8a8"/><stop offset="0.715" stop-color="#010101"/><stop offset="1" stop-color="#4e4e4e"/></linearGradient><linearGradient id="db" x1="-167.319" y1="54.076" x2="-167.757" y2="54.817" gradientUnits="objectBoundingBox"><stop offset="0" stop-color="#010101"/><stop offset="1" stop-color="#8dc641"/></linearGradient><linearGradient id="dc" x1="-18.079" y1="20.438" x2="-18.139" y2="20.584" xlink:href="#cd"/><linearGradient id="dd" x1="-60.16" y1="44.854" x2="-59.157" y2="44.854" xlink:href="#an"/><linearGradient id="de" x1="-30.938" y1="8.813" x2="-29.935" y2="8.813" xlink:href="#e"/><linearGradient id="df" x1="-30.954" y1="11.173" x2="-29.952" y2="11.173" xlink:href="#e"/><linearGradient id="dg" x1="-52.657" y1="34.479" x2="-50.951" y2="34.479" xlink:href="#e"/><linearGradient id="dh" x1="-1038.717" y1="1209.603" x2="-1037.578" y2="1209.603" xlink:href="#e"/><linearGradient id="di" x1="-170.877" y1="74.132" x2="-169.913" y2="74.132" xlink:href="#e"/><linearGradient id="dj" x1="-440.408" y1="106.866" x2="-438.995" y2="106.905" xlink:href="#ap"/><linearGradient id="dk" x1="-421.897" y1="214.094" x2="-420.334" y2="214.184" xlink:href="#av"/><linearGradient id="dl" x1="-1031.687" y1="1155.812" x2="-1030.364" y2="1155.812" xlink:href="#e"/><linearGradient id="dm" x1="-199.526" y1="-71.567" x2="-198.56" y2="-71.567" xlink:href="#e"/><linearGradient id="dn" x1="-427.33" y1="-101.875" x2="-426.154" y2="-101.833" xlink:href="#ap"/><linearGradient id="do" x1="-492.735" y1="-236.95" x2="-491.167" y2="-236.839" xlink:href="#av"/><linearGradient id="dp" x1="-930.481" y1="922.072" x2="-928.674" y2="922.072" xlink:href="#e"/><linearGradient id="dq" x1="-278.584" y1="-492.986" x2="-277.731" y2="-492.986" xlink:href="#e"/><linearGradient id="dr" x1="-594.015" y1="-653.895" x2="-592.981" y2="-653.846" xlink:href="#ap"/><linearGradient id="ds" x1="-876.185" y1="-1511.892" x2="-874.424" y2="-1511.761" xlink:href="#av"/><linearGradient id="dt" x1="-34.071" y1="75.114" x2="-33.054" y2="75.114" xlink:href="#e"/><linearGradient id="du" x1="-28.549" y1="63.881" x2="-27.579" y2="63.881" xlink:href="#e"/><linearGradient id="dv" x1="-24.492" y1="54.974" x2="-23.519" y2="54.974" xlink:href="#e"/><linearGradient id="dw" x1="-22.386" y1="51.831" x2="-21.404" y2="51.831" xlink:href="#e"/><linearGradient id="dx" x1="-29.767" y1="11.912" x2="-28.761" y2="11.912" xlink:href="#af"/><linearGradient id="dy" x1="-758.252" y1="39.167" x2="-757.166" y2="39.167" xlink:href="#af"/><linearGradient id="dz" x1="-631.985" y1="37.632" x2="-631.077" y2="37.632" xlink:href="#af"/><linearGradient id="ea" x1="-631.72" y1="38.729" x2="-630.813" y2="38.729" xlink:href="#af"/><linearGradient id="eb" x1="-45.519" y1="15.888" x2="-43.998" y2="15.888" xlink:href="#af"/><linearGradient id="ec" x1="-84.601" y1="18.971" x2="-81.742" y2="18.971" xlink:href="#af"/><linearGradient id="ed" x1="-42.089" y1="18.658" x2="-41.086" y2="18.658" gradientUnits="objectBoundingBox"><stop offset="0" stop-color="#010101"/><stop offset="1" stop-color="#1a1a1a"/></linearGradient><linearGradient id="ee" x1="-39.154" y1="14.874" x2="-38.152" y2="14.874" xlink:href="#ed"/><linearGradient id="ef" x1="-38.985" y1="14.853" x2="-37.987" y2="14.853" gradientUnits="objectBoundingBox"><stop offset="0" stop-color="#4e4e4e"/><stop offset="1" stop-color="#1a1a1a"/></linearGradient><linearGradient id="eg" x1="-344.654" y1="107.691" x2="-343.676" y2="107.691" xlink:href="#e"/><radialGradient id="eh" cx="-0.388" cy="0.285" r="0.809" gradientTransform="matrix(1.472, 0, 0, -1, 145.043, 115.663)" xlink:href="#q"/><linearGradient id="ei" x1="-381.529" y1="128.707" x2="-380.578" y2="128.707" xlink:href="#e"/><radialGradient id="ej" cx="-0.345" cy="0.348" r="0.843" gradientTransform="matrix(1.407, -0.006, -0.008, -1, 141.828, 131.283)" xlink:href="#q"/><linearGradient id="ek" x1="-318.056" y1="528.313" x2="-317.193" y2="528.313" xlink:href="#e"/><radialGradient id="el" cx="-0.197" cy="0.15" r="0.909" gradientTransform="matrix(1.138, 0.186, 0.215, -0.983, -97.471, 1251.617)" xlink:href="#q"/><linearGradient id="em" x1="-353.465" y1="819.393" x2="-352.635" y2="819.393" xlink:href="#e"/><radialGradient id="en" cx="-0.294" cy="0.113" r="0.978" gradientTransform="matrix(1.097, 0.268, 0.306, -0.963, -293.421, 2139.562)" xlink:href="#q"/><linearGradient id="eo" x1="-216.891" y1="84.511" x2="-216.717" y2="84.742" gradientUnits="objectBoundingBox"><stop offset="0" stop-color="#818181"/><stop offset="1" stop-color="#1a1a1a"/></linearGradient><linearGradient id="ep" x1="-216.817" y1="85.593" x2="-216.644" y2="85.823" xlink:href="#eo"/><linearGradient id="eq" x1="-244.825" y1="92.771" x2="-244.654" y2="92.984" xlink:href="#eo"/><linearGradient id="er" x1="-244.794" y1="100.529" x2="-244.621" y2="100.761" xlink:href="#eo"/><linearGradient id="es" x1="-245.571" y1="101.649" x2="-245.4" y2="101.876" xlink:href="#eo"/><linearGradient id="et" x1="-262.712" y1="110.542" x2="-262.544" y2="110.768" xlink:href="#eo"/><linearGradient id="eu" x1="-262.802" y1="111.472" x2="-262.638" y2="111.692" xlink:href="#eo"/><linearGradient id="ev" x1="-262.873" y1="112.253" x2="-262.705" y2="112.479" xlink:href="#eo"/><linearGradient id="ew" x1="-281.09" y1="112.892" x2="-280.917" y2="113.111" xlink:href="#eo"/><linearGradient id="ex" x1="-19.493" y1="6.168" x2="-18.492" y2="6.168" xlink:href="#d"/><linearGradient id="ey" x1="-24.452" y1="6.458" x2="-23.452" y2="6.458" xlink:href="#e"/><linearGradient id="ez" x1="-39.698" y1="23.826" x2="-38.691" y2="23.826" xlink:href="#j"/><linearGradient id="fa" x1="-39.698" y1="23.954" x2="-38.691" y2="23.954" xlink:href="#j"/><linearGradient id="fb" x1="-96.11" y1="-406.008" x2="-95.156" y2="-406.008" xlink:href="#j"/><linearGradient id="fc" x1="-96.084" y1="-405.911" x2="-95.13" y2="-405.911" xlink:href="#j"/><linearGradient id="fd" x1="-108.964" y1="-322.372" x2="-108.11" y2="-322.372" xlink:href="#j"/><linearGradient id="fe" x1="-107.631" y1="-301.428" x2="-106.771" y2="-301.428" xlink:href="#j"/><linearGradient id="ff" x1="-20.944" y1="31.511" x2="-19.94" y2="31.511" xlink:href="#j"/><linearGradient id="fg" x1="-66.613" y1="8.588" x2="-67.45" y2="8.563" xlink:href="#e"/></defs><g transform="translate(-28.635 -13.68)"><ellipse cx="23.5" cy="1.5" rx="23.5" ry="1.5" transform="translate(28.764 133.319)" fill="url(#a)"/><ellipse cx="23.5" cy="1.5" rx="23.5" ry="1.5" transform="translate(74.364 133.319)" fill="url(#b)"/><ellipse cx="38.7" cy="0.9" rx="38.7" ry="0.9" transform="translate(36.964 133.92)" opacity="0.25" fill="url(#c)"/><path d="M74.564,77.42c-1.7,1.2-3.9,5.6-3.9,6.5s3.4,7.6,4,9.2a15.171,15.171,0,0,1,.2,6.7c-.4,1.5-5.5,8.6-9.3,12-3.9,3.4,1.4,8.7,1.4,8.7s11.1-5.1,15.2-5.3,10.1.7,10.7,3.3a16.752,16.752,0,0,1,.5,4.3l6.9-.7s.4-4.6.6-6.6a5.2,5.2,0,0,0-2-4.5c-2.5-2.1-4.4-1.2-7.8-4.8,0,0-2.8.6-1.4-2.9,1.6-4.1,4.3-12.2,3.9-14.8-.5-2.6,2.4-20.6-4.2-12.1-1.6,2.1-9.2-.1-9.7,0s-5.1,1-5.1,1Z" fill="url(#d)"/><path d="M74.564,92.72c1.1,1.3.8,6.3.6,6.8,1-.2,5.3,1.1,8.9,1.2-2.9-.9-4.7-1.3-5.9-2s3.6-1.1.9-1.5c-2.6-.4.1-1.3-1.3-1.6-1.5-.3.1-1.3-.9-1.3s-1.8-5.5-1.8-4.9c-.2,1.5-.5,3.3-.5,3.3Z" fill="url(#e)"/><path d="M60.164,113.319c.4-.2,7.1,1.4,8,5.8.3,1.3.5,1.6.4,1.7-.2.1-6.5,4.7-7.2,6.1a8.489,8.489,0,0,0-.2,5.2,2.794,2.794,0,0,1-.9,3c-.9.9-9.2.5-11,.3a2.859,2.859,0,0,1-2.6-2.7c-.1-1.1.9-2.6,1.8-3.5.9-.8,3.6-3,4.5-4.6s1.8-2,2.9-3.7a34.949,34.949,0,0,0,3.3-6.1,3.562,3.562,0,0,1,1-1.5Z" fill="url(#f)"/><path d="M47.564,131.619a2.226,2.226,0,0,0-.1,2.1c.4.7.6.9,1.7.6s1.1-.6,2.1-.5,1.1.3,2.1-.3a2.54,2.54,0,0,1,2-.3c.6.1,1.1.4,1.7-.1.7-.5,1.5-1.1,2.5-.5.9.6.8,1,1.1.1s.4-2.4-2.1-4.1C55.864,126.92,48.664,128.819,47.564,131.619Z" fill="url(#g)"/><path d="M52.264,126.42c1.1-1.4,1.9-1.3,3.6-1.3a6.413,6.413,0,0,1,3.7,1.1,2.718,2.718,0,0,1,.8,1.7c0,.6-.7-.1-2.7-.2a14.693,14.693,0,0,0-7.4,1.2C49.164,129.42,51.164,127.819,52.264,126.42Z" fill="url(#h)"/><path d="M53.664,124.619c.1-.9.2-.9.8-1.6a34.9,34.9,0,0,0,3.8-5.4c.8-1.6,1.3-3,1.6-3.4s4.6-.1,5.9,1.9c1.2,2,2.2,3.4,2.2,4s-3.8,2.8-5.4,4.5-2.1,2-2.6,1.5c-.4-.5-3.5-1.6-4.8-1.7-.3,0-1.5.2-1.5.2Z" fill="url(#i)"/><path d="M58.864,116.02c-.4.3-.8.4-.5.7s4.8,8.2,5.1,8.4c.3.3.5-.1.5-.4C63.764,124.42,58.864,116.02,58.864,116.02Z" fill="url(#j)"/><path d="M58.464,116.02c-.4.3-.8.4-.5.7s4.8,8.2,5.1,8.4c.3.3.5-.1.5-.4-.2-.3-5.1-8.7-5.1-8.7Z" fill="url(#k)"/><path d="M52.764,123.72c-.3.2-.7.4-.4.7s8,1.4,8.6,2.3c.3.4.9.5.6-.1-.7-1.4-8-2.9-7.9-2.8a4.465,4.465,0,0,0-.9-.1Z" fill="url(#l)"/><path d="M52.564,124.22c-.3.2-.7.4-.4.7s8,1.4,8.6,2.3c.3.4.9.5.6-.1-.7-1.6-7.4-2.8-7.9-2.8A4.452,4.452,0,0,0,52.564,124.22Z" fill="url(#m)"/><path d="M48.764,128.92c-.7.2-.7.8-.6.7s9-2.7,12.3-.3c.3.2.5-.5.3-.7C57.764,125.52,48.764,128.92,48.764,128.92Z" fill="url(#n)"/><path d="M49.064,128.52c-.7.2-.7.8-.6.7s9-2.7,12.3-.3c.3.2.5-.5.3-.7-3-3.1-12,.3-12,.3Z" fill="url(#o)"/><path d="M65.464,115.319c-.2.2-5.6,7.7-7,9.1-1.5,1.4-1.8,2.1-2,2.9s-1.6,2.8-1.7,3.6a17.17,17.17,0,0,0,0,3.2,1.79,1.79,0,0,0,.9,1.4s3.1.8,4.4-.6.8-3.7.7-5a4.471,4.471,0,0,1,.3-2.5,13.327,13.327,0,0,0,.5-1.4c-.1-.2-.4-.7,1.9-1.8a13.654,13.654,0,0,0,4.1-3.2,1.066,1.066,0,0,0,.4-1.6c-.5-.9-.7-2.1-1.3-2.6a4.268,4.268,0,0,1-1.2-1.5Z" opacity="0.5" fill="url(#p)"/><path d="M73.564,102.319a2.151,2.151,0,0,0,.5.3c.4.2.8.3,1.2.5,1,.3,1.9.6,2.9.8,1.9.5,8.5,1.2,11.2.3.4,0,1.6-3.1,1.4-3.6-6.3,1.9-15.8-1.7-16.2-.6-.1.4-.7,1.3-1,2.3h0Z" fill="url(#q)"/><path d="M93.563,70.72a4.61,4.61,0,0,1,3.6-1.7,17.506,17.506,0,0,1,4.6.8c.5.3-1,4.1-1.6,4.4-.6.4-3.4,1.3-4.3.6-.8-.5-2.3-4.1-2.3-4.1Z" fill="url(#r)"/><path d="M89.364,69.919l2.4-1.9s.1-.4,1,0c.8.4,5.1,3,5,6.1-.2,3.1-4,4.6-4.6,4.5-.7,0-1.1,0-1.5-1.6s-1.3-3.8-2.2-4.6a1.578,1.578,0,0,1-.1-2.5Z" fill="url(#s)"/><path d="M87.664,71.22l2.2-1.7s.1-.3.9,0,4.7,2.7,4.6,5.6c-.2,2.9-3.7,4.2-4.3,4.2s-1,0-1.4-1.4-1.2-3.5-2-4.2a1.6,1.6,0,0,1,0-2.5Z" fill="url(#t)"/><path d="M86.264,72.72l1.9-1.5s.1-.3.8,0,4.2,2.4,4.1,4.8c-.1,2.5-3.2,3.6-3.8,3.5-.5,0-.9,0-1.2-1.2a10.091,10.091,0,0,0-1.8-3.6c-1.1-.9,0-2,0-2Z" fill="url(#u)"/><path d="M84.964,73.919l1.7-1.3s.1-.3.7,0,3.7,2.1,3.6,4.2c-.1,2.2-2.8,3.1-3.3,3.1s-.8,0-1.1-1.1a8.729,8.729,0,0,0-1.6-3.2,1.055,1.055,0,0,1,0-1.7Z" fill="url(#v)"/><path d="M94.464,70.12c.1.2-.1.4-.4.6s-.6.2-.7,0,.1-.4.4-.6A.82.82,0,0,1,94.464,70.12Z" fill="url(#w)"/><path d="M94.364,70.12c.1.1-.1.3-.3.4s-.5.1-.5,0c-.1-.1.1-.3.3-.4A.447.447,0,0,1,94.364,70.12Z" fill="url(#x)"/><path d="M91.964,71.319c.1.1-.1.4-.3.6a.631.631,0,0,1-.7.1c-.1-.1.1-.4.3-.6C91.664,71.22,91.964,71.22,91.964,71.319Z" fill="url(#y)"/><path d="M91.864,71.319c.1.1,0,.3-.3.5s-.5.2-.5,0c-.1-.1,0-.3.3-.5A.45.45,0,0,1,91.864,71.319Z" fill="url(#z)"/><path d="M90.063,72.52c.1.1-.1.4-.3.6a.631.631,0,0,1-.7.1c-.1-.1.1-.4.3-.6C89.664,72.419,89.964,72.419,90.063,72.52Z" fill="url(#aa)"/><path d="M89.964,72.52c.1.1,0,.3-.3.5-.2.1-.5.2-.5,0-.1-.1,0-.3.3-.5A.443.443,0,0,1,89.964,72.52Z" fill="url(#ab)"/><path d="M87.964,73.819c.1.1-.1.4-.3.6-.3.2-.6.2-.7.1s.1-.4.3-.6C87.563,73.62,87.864,73.62,87.964,73.819Z" fill="url(#ac)"/><path d="M87.764,73.72c.1.1,0,.3-.3.5-.2.1-.5.2-.5,0-.1-.1,0-.3.3-.5C87.464,73.62,87.764,73.62,87.764,73.72Z" fill="url(#ad)"/><path d="M98.264,74.52c-.3.5-.3.6.3,1.9s.4,1.1.3,1.9-.5,1,.2,1.4,1.4-.1,1.8-.4.4-1.1.4-1.9c-.1-.8,0-1.2-.3-1.7a26.614,26.614,0,0,1-1.4-3.9C99.464,71.62,98.764,73.919,98.264,74.52Z" fill="url(#ae)"/><path d="M99.164,72.319c-.4.8.3,3.7,1.2,4.7s1.8,2.6,2.6,2.9,2.3.6,2.4.1.1-.6.9-.5,1.4-.4,1.3-.6c-.1-.1.8-.7,1.5-.8a2.367,2.367,0,0,0,1.4-.8c.2-.3-.1.2.9-.1s.8-1.2.5-2.9a11.242,11.242,0,0,0-1.9-4.4,4.445,4.445,0,0,0-4.2-.9c-1.2.5-4.7,1.8-5,2.1a12.224,12.224,0,0,1-1.6,1.2Z" fill="url(#af)"/><path d="M111.864,74.419a8.014,8.014,0,0,0-1.5-3.6l-.9.6a11.781,11.781,0,0,1-1.9,1.1c.2.9.7,1.1.5,2.3-.2,1.5-.4,2.9-.7,4.4.1-.1.2-.2.1-.2-.1-.1.8-.7,1.5-.8a2.375,2.375,0,0,0,1.4-.8c.2-.3-.1.2.9-.1C112.364,77.02,112.164,76.119,111.864,74.419Z" opacity="0.5" fill="url(#ag)"/><path d="M102.364,74.919h-.2c-.1,0-.1,0-.2.1a6.517,6.517,0,0,0,.5,1.5c.6,1,2.1,3.2,2.5,3.7a.528.528,0,0,0,.3-.9c-.2-.3-2-3.1-2.9-4.4Z" opacity="0.5" fill="url(#ah)"/><path d="M104.764,74.02a.349.349,0,0,0-.2.1,6.566,6.566,0,0,0,.5,1.5,26.913,26.913,0,0,0,2.3,3.7s.4-.2.1-.5-2-3.6-2.7-4.8Z" opacity="0.5" fill="url(#ai)"/><path d="M109.063,71.62c-.1.1-.2.1-.4.2.2.4,1.7,5.6,1.7,5.6a6.47,6.47,0,0,0-.2-2.1A17.9,17.9,0,0,0,109.063,71.62Z" opacity="0.5" fill="url(#aj)"/><path d="M101.563,75.119c-.6.2-1.3.3-1.9.5a2.962,2.962,0,0,0,.7,1.5c.9,1,1.8,2.6,2.6,2.9a7.106,7.106,0,0,0,2,.4c-.4-.5-.9-1.1-1.3-1.6a23.1,23.1,0,0,1-2.1-3.7Z" opacity="0.5" fill="url(#ak)"/><path d="M104.164,74.22c-.3.1-.5.2-.8.3-.1,0-.1.1-.2.1-.3.1-.5.2-.8.3a4.557,4.557,0,0,0,.7,1.4c.8.9,1.8,2.8,2.4,3.1a2.558,2.558,0,0,0,1.5,0,14.308,14.308,0,0,1-1.1-1.5c-.6-1.3-1.2-2.3-1.7-3.7Z" opacity="0.5" fill="url(#al)"/><path d="M103.464,71.02c.1-.1.1-.2.2-.3a.953.953,0,0,1,1.6.7v2.1c.2-1,.5-2.1.7-3.2a5.067,5.067,0,0,0,.2-1.3c-.1,0-.3.1-.4.1a25.427,25.427,0,0,1-2.6,1.1,1.33,1.33,0,0,1,.3.8Z" opacity="0.5" fill="url(#am)"/><path d="M106.264,68.419c1.4-.1,2.9.5,2.5.7-2.2.9-1.6,4.3-1.6,5.1s1.2,3.5,1.4,4.2-.8.6-.9.4-.7-3-1.9-4c-1.2-1.1-2.7-2.6-4.3-2.7s-5.2,1.7-2.8-.7a12.917,12.917,0,0,1,7.6-3Z" fill="#010101"/><path d="M106.664,68.419c1.4-.1,2.9.5,2.5.7-2.2.9-1.6,4.3-1.6,5.1s1.2,3.5,1.4,4.2-.8.6-.9.4-.7-3-1.9-4c-1.2-1.1-2.7-2.6-4.3-2.7s-5.2,1.7-2.8-.7a12.921,12.921,0,0,1,7.6-3Z" fill="#010101" opacity="0.25"/><path d="M83.764,75.52c1.1,1.8,3.5,6.4,3.5,6.4a22.053,22.053,0,0,1,3.6-4.3c2.3-2,3.6-3.1,4.8-4s.9-2.6-.4-3.5c-1.3-1-1.9-1.9-3.3-1.4-1.4.6-4.9,2.2-5.4,2.5s-2.8,4.3-2.8,4.3Z" fill="#010101" opacity="0.5"/><path d="M78.364,72.52c-1.1,1.1-2.6,1.8-2.2,4.1a11.18,11.18,0,0,0,3.5,5c1.7,1.1,4.1,1.7,5.6,2.7a19.456,19.456,0,0,1,3.8,2.9c.6.8,1.7.2,1.6-.8s-1.3-5-1.7-6.3a13.946,13.946,0,0,0-5.5-7,15.456,15.456,0,0,0-2.3-.7,11.616,11.616,0,0,0-2.8.1Z" fill="url(#an)"/><path d="M79.864,73.52c-1,.7-2.2,1.2-1.5,3s2.8,3.6,4.6,4.6a20.727,20.727,0,0,1,4.6,3.2c1.1,1.1,2.5,3,2.4,2.5a58.777,58.777,0,0,0-3.1-6.9c-1-1.5-2.9-4.2-3.1-4.8a4.075,4.075,0,0,0-2.6-1.9,5.662,5.662,0,0,0-1.3.3Z" fill="#010101"/><path d="M79.464,74.22c0,1,.2,1.3-.3,2.1-.6.8,2.3,3.3,4.3,4.7,1.6,1.1,5.1,4.1,6.1,5.7,1,1.5-1-5.8-3.5-7.7a5.713,5.713,0,0,1-2.4-3.8c-.2-.9-1.7-2.1-2.5-1.7a8.392,8.392,0,0,0-1.7.7Z" fill="url(#ao)"/><path d="M78.063,73.22c-.3.3-2,1.3-1.4,3.2a8.4,8.4,0,0,0,4.8,4.8c3.2,1.1,6,3.8,6.7,4.3-.9-.9-3.9-3.7-6-4.4a8.61,8.61,0,0,1-4.3-4.1c-.8-1.5-.6-2.3.9-3.4C78.964,73.419,78.063,73.22,78.063,73.22Z" opacity="0.5" fill="url(#ap)"/><path d="M83.464,74.02c0,.2,0,.5,1.4,1.7,1.7,1.4,4,6.2,4.6,8.3,0,0-1.5-4.5-2-5.7-.7-1.5-3.3-4.2-3.4-4.4C83.764,73.62,83.464,74.02,83.464,74.02Z" opacity="0.5" fill="url(#aq)"/><path d="M60.864,52.12c-1.3,1.6-10.2,10.9-7,21.1.9,2.7,5.2,7,7,7.9a18.638,18.638,0,0,0,3.4,1.3l-1.7-3.3,3.2-2s-4.5.5-7-2c-7.3-7.1,2.3-20.6,2.8-22.2s-.7-.8-.7-.8Z" fill="#010101"/><path d="M60.964,50.72c-2.5,3.4-12,7-11.6,19.8.1,4.2,2.1,12.4.5,15.6a11.762,11.762,0,0,1-4.2,4.7c8-4.9,10.6-1.3,8.8,5.1,6.8-5.5,1.2-17.7-.4-25.7-1.5-7,5.3-13.9,6.9-16.2s0-3.3,0-3.3Z" fill="url(#ar)"/><circle cx="3.1" cy="3.1" r="3.1" transform="translate(59.064 49.119)" fill="url(#as)"/><path d="M88.063,13.72s-12.6,3.6-13.9,4.5a4.823,4.823,0,0,0-2,2,19.9,19.9,0,0,1-2.3,2,4.594,4.594,0,0,0-1.4,1.7c0,.2.4-1.2-1.2,1a22.045,22.045,0,0,0-2.3,3.6c0,.2.2-.3-1.1,1.5s-2,2.7-2,3.5a13.773,13.773,0,0,1-.5,2.5,18.919,18.919,0,0,0,0,2.4c-.1.6-.5,6.3-.6,8.7s.3,7.8,1.1,10c.7,2.2,5.3,11,7.5,13.3s8.8,4.2,11.3,5.3,5.2.8,8-1.6,10.2-10,11.2-12.2c1-2.3,3.9-7.1,4-11.3a47.114,47.114,0,0,0-.7-9.5c-.2-1.4-2.2-11.4-2.8-12.8-.7-1.4-7.7-8.8-8.9-10.2a20.877,20.877,0,0,1-2.6-4.1.655.655,0,0,0-.8-.3Z" fill="url(#at)"/><path d="M102.764,38.819a20.041,20.041,0,0,1-2.4.4l-9.6,1.5a41.091,41.091,0,0,1-10.5.4,37.82,37.82,0,0,1-5.7-1c-1.6-.4-3.1-1-4.7-1.5-1.5-.5-2.9-1.1-4.4-1.5-.2-.1-.4-.1-.6-.2a1.274,1.274,0,0,0-.6.1c-1,.2-2.1.3-3.1.6v.8c-.1.6-.5,6.3-.6,8.7s.3,7.8,1.1,10a47.432,47.432,0,0,0,2.9,6.1c2.7-1.4,5.8-2,8.7-2.7a53.166,53.166,0,0,1,10.5-1.5,61.589,61.589,0,0,1,9.6.2,58.23,58.23,0,0,1,5.8.9l1.2.3c1.2-2.5,3.2-6.4,3.4-9.8a47.037,47.037,0,0,0-.7-9.5,5.717,5.717,0,0,0-.3-2.3Z" fill="url(#au)"/><path d="M67.564,39.919c-3.6.6-4.3-.2-5,1.4s-1,5.7-.8,7.9a25.576,25.576,0,0,0,.5,3.7c.3,1.5,0-5.5.2-7,.2-1.6.2-3.5,1.2-4.2a7.708,7.708,0,0,1,3.7-1.1c1.6-.2,1.6-.5,2.6-.2a19.909,19.909,0,0,1-2.4-.5Z" opacity="0.5" fill="url(#av)"/><path d="M73.764,18.819c1.5-1.2,11.2-3.7,12-4s4.2-1.8,1.2,0c-1,.6-3.8,5.5-4.2,6.4-2.4,4.7-2.1,6.9-2,7.8,0,1-5,1.1-5.8,2.5-.5.8,1.7.8,5.5.7s2.9-.3.2.9-2,.5.8,1.2,3,1,.9,1.4-.3,1.2.7,1.4a17.389,17.389,0,0,0,5.6,0c1.7-.4,1.2.8-1.8,1a124.862,124.862,0,0,1-17.6-1.3c-3.9-.8-7.7,2.8-7.2,0,.3-1.6.2-2.7.5-3.6.3-.6,1.3-1.1,1.9-2.8.5-1.3,2.5-2.7,2.4-3s-.4,0,.2-1.1a10.264,10.264,0,0,1,2.4-2.8,19.123,19.123,0,0,1,2.3-2.1,25.912,25.912,0,0,1,2-2.6Z" opacity="0.5" fill="url(#aw)"/><path d="M88.264,14.12a14.8,14.8,0,0,0-1.7,1.3c-.3.4-3.4,5.6-3.6,6s-1.9,6.3-2.1,6.8c-.2.6,2.1,1.6-2.3,2.3s-4.3,1.4.9,1.3,4-.2,4.3-.1-2.3,1.3-3,1.6c-.7.4,1.6.3,2.7,1.1s-.1,1.2-.8,1.3c-1.8.3-.5,1-.1,1,4.6.5,5-.4,7.1-.7s2.2,1,.1,1.7c-2.1.6-1.6.3-.8.4.9,0,6-.2,8.3-.3,2.3,0,4.6-.2,4.6-.2s-1.2-7.8-1.6-8.5c-.4-.6-5.3-7-6.5-7.8a36.316,36.316,0,0,1-4.7-5.8c-.3-.6-.5-1.3-.6-1.4h-.2Z" fill="url(#ax)"/><path d="M70.564,40.919c-1.4-.5-6.5.9-7,3.4s-1,8-.4,9.6c.7,1.6,2.3,5.1,5.9,4a87.212,87.212,0,0,0,11.9-5.1c1.3-.7,1.6-.8,2.6,0a20.556,20.556,0,0,0,7.5,3c3.3.7,7.8,2.7,9.4,1s3.1-7.3,2.5-10-4.7-5.5-7.3-4.6-8.4,2.5-12.4,2a127.665,127.665,0,0,1-12.7-3.3Z" fill="url(#ay)"/><path d="M102.964,46.72c-.6-2.7-4.7-5.5-7.3-4.6s-8.4,2.5-12.4,2-12.7-3.3-12.7-3.3c-1.4-.5-6.5.9-7,3.4-.1.6-.3,1.4-.4,2.3a9.887,9.887,0,0,1,4.4-1.7c4.5-.7,8.6.8,13,1.2,4.7.4,9.4-1.5,14.1-.4,3,.7,7,3.5,5.1,7.1a5.582,5.582,0,0,1-.5.8,7.853,7.853,0,0,1-4,3.4c2.2.6,4.3.9,5.3-.1C102.063,55.12,103.563,49.52,102.964,46.72Z" opacity="0.5" fill="url(#az)"/><path d="M70.564,40.919a.369.369,0,0,1-.3-.1h-.9a3.926,3.926,0,0,0-1.4.3,7.59,7.59,0,0,0-1.8.6c-.3.2-.7.3-1,.5a7.006,7.006,0,0,0-1,.8c-.1.2-.3.3-.4.5l-.3.6a6.753,6.753,0,0,0-.2,1.4,31.627,31.627,0,0,0-.3,3.2v1.7a10.762,10.762,0,0,0,.1,1.8v.8c0,.1,0,.2.1.2l.1.2c0,.1.1.1.1.2l.1.2c.3.6.6,1.2.9,1.7a6.19,6.19,0,0,0,1.4,1.4,3.077,3.077,0,0,0,1.9.6,3.4,3.4,0,0,0,1-.1.367.367,0,0,0,.3-.1h.2c.2-.1.3-.1.5-.2a4.179,4.179,0,0,0,1-.4,4.179,4.179,0,0,1,1-.4c.2-.1.3-.1.5-.2s.3-.1.5-.2c.3-.1.7-.3,1-.4l2.1-.9c1.4-.6,2.8-1.3,4.2-2,.3-.2.7-.4,1-.6l.6-.3a.821.821,0,0,1,.7-.1,1.445,1.445,0,0,1,.7.2,1,1,0,0,1,.5.4h.1l.1.1.2.2.5.3.1.1.1.1.3.1a2.231,2.231,0,0,1,.5.3c.4.2.7.3,1.1.5.4.1.7.3,1.1.4s.8.3,1.2.4l1.2.3,1.2.3,2.4.6a21.15,21.15,0,0,0,2.4.6,9.693,9.693,0,0,0,2.3.3,4.268,4.268,0,0,0,1.1-.2,1.374,1.374,0,0,0,.4-.3l.1-.1v-.1l.2-.2c.1-.2.2-.3.3-.5s.2-.3.3-.5a2.186,2.186,0,0,1,.3-.5l.2-.5a18.349,18.349,0,0,0,1.2-4.6,17.7,17.7,0,0,0,.1-2.3,4.958,4.958,0,0,0-.8-2,7.48,7.48,0,0,0-3.4-2.7,5.219,5.219,0,0,0-2.1-.4.9.9,0,0,0-.5.1c-.1,0-.2,0-.2.1-.1,0-.2.1-.3.1-.3.1-.7.2-1,.3-1.4.4-2.7.7-4,1a17.267,17.267,0,0,1-3.8.5,14.482,14.482,0,0,1-3.6-.1c-.6-.1-1.1-.2-1.6-.3l-1.5-.3a5.732,5.732,0,0,1-1.4-.4c-.5-.1-.9-.2-1.3-.3-.8-.2-1.6-.4-2.3-.6a32.272,32.272,0,0,1-3.2-1,4.066,4.066,0,0,1-.9-.1Zm0,0s.4.1,1.1.3,1.8.5,3.2.9c.7.2,1.5.4,2.3.6.4.1.9.2,1.3.3.5.1.9.2,1.4.3l1.5.3c.5.1,1.1.2,1.6.3a13.661,13.661,0,0,0,3.5,0,27.13,27.13,0,0,0,3.8-.6,34.442,34.442,0,0,0,4-1.1c.3-.1.7-.2,1-.3.1,0,.2-.1.3-.1s.2-.1.3-.1c.2,0,.4-.1.6-.1a4.682,4.682,0,0,1,2.3.4,7.814,7.814,0,0,1,2,1.1,9.088,9.088,0,0,1,1.7,1.7,10.908,10.908,0,0,1,.6,1.1c0,.1.1.2.1.3s.1.2.1.3v.3l.1.3a9.638,9.638,0,0,1,0,2.4,20.224,20.224,0,0,1-.4,2.4,21.718,21.718,0,0,1-.7,2.4l-.3.7-.3.6-.3.6a2.113,2.113,0,0,1-.4.6l-.2.2-.1.1-.1.1a2.065,2.065,0,0,1-.6.4,3.079,3.079,0,0,1-1.3.3,10.074,10.074,0,0,1-2.5-.3l-2.4-.6c-.8-.2-1.6-.5-2.4-.7l-1.2-.3-1.2-.3c-.4-.1-.8-.3-1.2-.4s-.8-.3-1.2-.4a3.708,3.708,0,0,1-1.1-.5l-.6-.3-.3-.1-.1-.1-.1-.1-.6-.3-.2-.2-.1-.1h-.1l-.1-.1a1.8,1.8,0,0,0-.9-.4,5.344,5.344,0,0,0-1,.3,10.93,10.93,0,0,1-1.1.6c-1.4.7-2.9,1.3-4.3,2l-2.1.9c-.4.1-.7.3-1.1.4-.2.1-.3.1-.5.2s-.4.1-.5.2a10.587,10.587,0,0,0-1,.4c-.3.1-.7.2-1,.3-.2.1-.3.1-.5.2h-.2a.369.369,0,0,0-.3.1,4.1,4.1,0,0,1-1.1.1,3.456,3.456,0,0,1-2-.7,5.018,5.018,0,0,1-1.4-1.5,7.6,7.6,0,0,1-.9-1.8c-.1-.2-.1-.3-.2-.5l-.1-.2v-2.8c0-.6.1-1.2.1-1.7a31.062,31.062,0,0,1,.4-3.2c.1-.5.2-1,.3-1.4a2.393,2.393,0,0,1,.7-1.2,3.915,3.915,0,0,1,1-.8,4.648,4.648,0,0,1,1-.5,9.393,9.393,0,0,1,1.8-.6,7.847,7.847,0,0,1,1.4-.2h.9c-.3-.5-.2-.5-.1-.4Z" fill="url(#ba)"/><path d="M100.164,42.22a16.526,16.526,0,0,0,.4-2.7c-.1-.3-9.7-3.3-10.1-1.4s-1.3,3.2-.2,3.1a24.747,24.747,0,0,1,9.9,1Z" fill="#55250e" opacity="0.2"/><path d="M100.563,41.919a16.457,16.457,0,0,0,.4-2.7c-.1-.3-9.7-3.3-10.1-1.4s-1.3,3.2-.2,3.1a24.744,24.744,0,0,1,9.9,1Z" fill="#8dc641"/><path d="M90.764,38.62a33.535,33.535,0,0,1,4.4.7c1,.2,2,.4,3,.7.3.1.7.2,1,.3.2.1,2.1.7,1.1.3a27.18,27.18,0,0,0-6.2-1.7c-1-.2-2.2-.3-3.3-.5,0-.1,0-.1.1-.2a36.211,36.211,0,0,1,9.8,2.5v.2q-3-.9-6-1.5c-1-.2-2-.4-3-.5a9.289,9.289,0,0,0-.9-.3Zm-.4,1.2h.9a2.74,2.74,0,0,0-.9,0,.349.349,0,0,1,.1-.2c1.5.2,3,.4,4.4.6.4.1.8.1,1.2.2,1.5.3,3,.6,4.4,1v.1a47.034,47.034,0,0,0-5.1-1.2h-.3c-1.6-.2-3.2-.4-4.7-.5Z" fill="#fff" opacity="0.25"/><path d="M90.563,39.22c1.3.1,2.7.4,3.9.5a49.909,49.909,0,0,1,5.3,1.1h-.1c-1.3-.4-2.6-.7-3.9-1-1.7-.4-3.4-.5-5.2-.8v-.2h.1a55.481,55.481,0,0,1,9.8,2.2v.1a48.653,48.653,0,0,0-7.6-1.5,13.566,13.566,0,0,0-2-.2h-.5l.2-.2Zm.3-1.4c.3,0,.6.1.9.1h.6a8.331,8.331,0,0,1-1.5-.4v-.1a4.331,4.331,0,0,0,.5.1,12.436,12.436,0,0,1,1.6.4,7.719,7.719,0,0,1,1.5.2c-.5-.1-.9-.2-1.4-.3-.3-.1-1.5-.3-2.2-.4v-.1a41,41,0,0,1,4.8,1c.5.1,1,.2,1.4.3a25.4,25.4,0,0,1,3.7,1v.1a2.389,2.389,0,0,1-.7-.3,22.622,22.622,0,0,0-2.5-.6c-.3-.1-.5-.1-.8-.2,1.1.3,2.1.6,3.2,1,.3.1.5.2.8.3v.1c-1.4-.3-2.8-.9-4.2-1.3l-1.2-.3a9.876,9.876,0,0,0-1.7-.2,33.309,33.309,0,0,1,7,2.1v.1l-.9-.3c-1-.4-2.1-.7-3.1-1-1.2-.3-2.5-.6-3.7-.9h-.6a70.327,70.327,0,0,1,8.2,2.2.1.1,0,0,1,.1.1v.1a56.983,56.983,0,0,0-5.5-1.6c-1.1-.3-2.2-.5-3.3-.7a3.405,3.405,0,0,0-1-.1v-.4Z" fill="#fff" opacity="0.25"/><path d="M90.764,38.22a33.535,33.535,0,0,1,4.4.7c1,.2,2,.4,3,.7.3.1.7.2,1,.3.2.1,2.1.7,1.1.3a27.18,27.18,0,0,0-6.2-1.7c-1-.2-2.2-.3-3.3-.5,0-.1,0-.1.1-.2a36.211,36.211,0,0,1,9.8,2.5v.2q-3-.9-6-1.5c-1-.2-2-.4-3-.5a8.759,8.759,0,0,0-.9-.3Zm-.4,1.2h0a.349.349,0,0,1,.1-.2c1.5.2,3,.4,4.4.6.4.1.8.1,1.2.2,1.5.3,3,.6,4.4,1v.1a47.034,47.034,0,0,0-5.1-1.2.369.369,0,0,1-.3-.1c-1.6-.1-3.2-.3-4.7-.4Zm-.2.9h.9a1.4,1.4,0,0,0-.9,0,.349.349,0,0,1,.1-.2c1.5.1,3,.1,4.5.3.4,0,.8.1,1.2.1,1.5.2,3,.4,4.5.7v.1c-1.7-.3-3.5-.6-5.2-.8h-.3a40.167,40.167,0,0,0-4.8-.2h0Z" fill="#fff" opacity="0.25"/><path d="M90.563,38.919c1.3.1,2.7.4,3.9.5a49.909,49.909,0,0,1,5.3,1.1h-.1c-1.3-.4-2.6-.7-3.9-1-1.7-.4-3.4-.5-5.2-.8v-.2h.1a55.481,55.481,0,0,1,9.8,2.2v.1a48.653,48.653,0,0,0-7.6-1.5,13.566,13.566,0,0,0-2-.2h-.5c.1-.1.2-.2.2-.2Zm9.6.2c.1,0,.4.2.7.3v-.1a22.382,22.382,0,0,0-3.7-1c-.5-.1-1-.2-1.4-.3a30.068,30.068,0,0,0-4.1-.9.1.1,0,0,0-.1.1c.6.1,1.4.3,1.6.3.5.1.9.2,1.4.3-.5-.1-1-.1-1.5-.2a12.437,12.437,0,0,1-1.6-.4h-.1a.1.1,0,0,0-.1.1l1.2.3h-.6c-.2,0-.5-.1-.7-.1a.1.1,0,0,1-.1.1c.3,0,.6.1.9.1,1.1.2,2.2.5,3.3.7,1.9.5,3.7,1,5.5,1.6v-.1c-.1,0-.1,0-.1-.1a55.166,55.166,0,0,0-8.2-2.3h.6c1.2.3,2.5.6,3.7.9,1,.3,2.1.6,3.1,1l.9.3v-.1a40.487,40.487,0,0,0-7-2.1c.6.1,1.1.1,1.7.2l1.2.3c1.4.4,2.8,1,4.2,1.3v-.1c-.3-.1-.5-.2-.8-.3-1.1-.3-2.1-.6-3.2-1,.3.1.6.1.8.2a16.471,16.471,0,0,0,2.5,1Z" fill="#fff" opacity="0.25"/><path d="M94.164,37.72c-1-.1-2.1-.2-3.2-.3,1.1-1.4,9.9,1.4,9.9,1.7v.8a17.068,17.068,0,0,0-6.7-2.2Z" fill="#55250e"/><path d="M66.464,42.22a16.526,16.526,0,0,1-.4-2.7c.1-.3,9.7-3.3,10.1-1.4s1.3,3.2.2,3.1a25.167,25.167,0,0,0-9.9,1Z" fill="#55250e" opacity="0.2"/><path d="M66.164,41.919a16.577,16.577,0,0,1-.4-2.7c.1-.3,9.7-3.3,10.1-1.4s1.3,3.2.2,3.1a24.744,24.744,0,0,0-9.9,1Z" fill="#8dc641"/><path d="M75.964,38.62a33.521,33.521,0,0,0-4.4.7c-1,.2-2,.4-3,.7-.3.1-.7.2-1,.3-.2.1-2.1.7-1.1.3a27.194,27.194,0,0,1,6.2-1.7c1-.2,2.2-.3,3.3-.5,0-.1,0-.1-.1-.2a36.211,36.211,0,0,0-9.8,2.5v.2q3-.9,6-1.5c1-.2,2-.4,3-.5A9.2,9.2,0,0,1,75.964,38.62Zm.4,1.2h-.9a2.746,2.746,0,0,1,.9,0,.348.348,0,0,0-.1-.2c-1.5.2-3,.4-4.4.6-.4.1-.8.1-1.2.2-1.5.3-3,.6-4.4,1v.1a47,47,0,0,1,5.1-1.2h.3c1.6-.2,3.1-.4,4.7-.5Z" fill="#fff" opacity="0.25"/><path d="M76.164,39.22c-1.3.1-2.7.4-3.9.5a49.909,49.909,0,0,0-5.3,1.1h.1c1.3-.4,2.6-.7,3.9-1,1.7-.4,3.4-.5,5.2-.8v-.2h-.1a55.481,55.481,0,0,0-9.8,2.2v.1a48.643,48.643,0,0,1,7.6-1.5,13.553,13.553,0,0,1,2-.2h.5c-.1-.1-.2-.1-.2-.2Zm-.4-1.4c-.3,0-.6.1-.9.1h-.6a8.331,8.331,0,0,0,1.5-.4v-.1a4.331,4.331,0,0,1-.5.1,12.436,12.436,0,0,0-1.6.4,7.719,7.719,0,0,0-1.5.2c.5-.1.9-.2,1.4-.3.3-.1,1.5-.3,2.2-.4v-.1a41,41,0,0,0-4.8,1c-.5.1-1,.2-1.4.3a25.4,25.4,0,0,0-3.7,1v.1a2.389,2.389,0,0,0,.7-.3,22.622,22.622,0,0,1,2.5-.6c.3-.1.5-.1.8-.2-1.1.3-2.1.6-3.2,1-.3.1-.5.2-.8.3v.1c1.4-.3,2.8-.9,4.2-1.3l1.2-.3a9.876,9.876,0,0,1,1.7-.2,33.309,33.309,0,0,0-7,2.1v.1l.9-.3c1-.4,2.1-.7,3.1-1,1.2-.3,2.5-.6,3.7-.9h.6a70.327,70.327,0,0,0-8.2,2.2.308.308,0,0,0-.2.1v.1a56.983,56.983,0,0,1,5.5-1.6c1.1-.3,2.2-.5,3.3-.7a3.4,3.4,0,0,1,1-.1c.2-.3.1-.4.1-.4Z" fill="#fff" opacity="0.25"/><path d="M75.964,38.22a33.521,33.521,0,0,0-4.4.7c-1,.2-2,.4-3,.7-.3.1-.7.2-1,.3-.2.1-2.1.7-1.1.3a27.194,27.194,0,0,1,6.2-1.7c1-.2,2.2-.3,3.3-.5v-.2a36.211,36.211,0,0,0-9.8,2.5v.2q3-.9,6-1.5c1-.2,2-.4,3-.5a3.989,3.989,0,0,1,.8-.3Zm.4,1.2h0a.348.348,0,0,0-.1-.2c-1.5.2-3,.4-4.4.6-.4.1-.8.1-1.2.2-1.5.3-3,.6-4.4,1v.1a47,47,0,0,1,5.1-1.2.367.367,0,0,0,.3-.1c1.6-.1,3.1-.3,4.7-.4Zm.2.9h-.9a1.4,1.4,0,0,1,.9,0,.349.349,0,0,0-.1-.2c-1.5.1-3,.1-4.5.3-.4,0-.8.1-1.2.1-1.5.2-3,.4-4.5.7v.1c1.7-.3,3.4-.6,5.2-.8h.3a40.184,40.184,0,0,1,4.8-.2Z" fill="#fff" opacity="0.25"/><path d="M76.164,38.919c-1.3.1-2.7.4-3.9.5a49.909,49.909,0,0,0-5.3,1.1h.1c1.3-.4,2.6-.7,3.9-1,1.7-.4,3.5-.5,5.2-.8v-.2h-.1a55.481,55.481,0,0,0-9.8,2.2v.1a48.643,48.643,0,0,1,7.6-1.5,13.553,13.553,0,0,1,2-.2h.5c-.2-.1-.2-.2-.2-.2Zm-.6-1.4a1.272,1.272,0,0,0-.6.1h-.6a3.553,3.553,0,0,1,1-.2.1.1,0,0,1-.1-.1l-1.5.3a7.719,7.719,0,0,0-1.5.2c.5-.1.9-.2,1.4-.3.2,0,.8-.2,1.3-.3a.1.1,0,0,1-.1-.1,26.154,26.154,0,0,0-3.8.9c-.5.1-1,.2-1.4.3a25.4,25.4,0,0,0-3.7,1v.1a2.377,2.377,0,0,0,.7-.3,22.676,22.676,0,0,1,2.5-.6c.3-.1.5-.1.8-.2-1.1.3-2.1.6-3.2,1-.3.1-.5.2-.8.3v.1c1.4-.3,2.8-.9,4.2-1.3l1.2-.3a9.853,9.853,0,0,1,1.7-.2,33.273,33.273,0,0,0-7,2.1v.1l.9-.3c1-.4,2.1-.7,3.1-1,1.2-.3,2.5-.6,3.7-.9h.6a55.1,55.1,0,0,0-8.2,2.3.31.31,0,0,0-.2.1v.1a56.983,56.983,0,0,1,5.5-1.6c1.1-.3,2.2-.5,3.3-.7a2.775,2.775,0,0,1,.9-.1c0-.5-.1-.5-.1-.5Z" fill="#fff" opacity="0.25"/><path d="M72.564,37.72c1-.1,2.1-.2,3.1-.3-1.1-1.4-9.9,1.4-9.9,1.7v.8A17.51,17.51,0,0,1,72.564,37.72Z" fill="#55250e"/><path d="M64.764,57.319c.6.7,2.4,3.5,6.8,1.3s9.9-4.9,10.9-5.1-1.6,4.4.9,11.1c-7.1.1-7.4-.1-11.1-1.4,3.3,5.5,11.5,6.9,15.3,5.9,1.6-.4-.7,1.6-2.2,1.9-2.4.5-3.8-.3-4.8-.4s1.9,2.4,3.5,2.4.5,2,.1,2.3-9.5-2.3-12.4-4.5a19.373,19.373,0,0,1-6-7.6,10.738,10.738,0,0,1-1-5.6" opacity="0.5" fill="url(#bb)"/><path d="M71.264,61.62a1.649,1.649,0,0,0-.4,1.7c.2.6,0,.3.4-.3a5.339,5.339,0,0,1,.7-1C72.264,61.72,71.264,61.62,71.264,61.62Z" fill="url(#bc)"/><path d="M93.063,58.02c2.1.7,4.7,1.1,5.7.8s1.1,2-.4,3.8a35.891,35.891,0,0,1-3.8,4.3c.4-1.4-.3-.8-.7.3a13.434,13.434,0,0,1-2.5,3.3,16.566,16.566,0,0,1-3.4,3.3c-.9.5-.7,1.4,1.5-2.2s3-5.8,1.9-4.8,1.2-2.1,1.3-2.5-1.7.7-3.8,1,2.2-2.1,2.8-3.1c.6-.9.4-1.8-.5-2-.9-.1-2.9-1.9-3.7-2.9s-.9-1,1.3-.3a30.047,30.047,0,0,0,4.3,1Z" fill="url(#bd)"/><path d="M84.264,16.62c-.4.1-.7.3-.5.6a2.877,2.877,0,0,1,1.4,1.2c.5.8.7.3.9,0s-.3-1.2-.6-1.4c-.1-.3-1.2-.4-1.2-.4Z" fill="url(#be)"/><path d="M83.864,17.02c0,.1-.1.1,0,.1a6.753,6.753,0,0,1,1.4,1.1c.2.3.2.4.3.5s.2.3.2.1c-.1-.2-.3-.8-.6-1a1.531,1.531,0,0,0-.7-.5.926.926,0,0,0-.6-.3Z" fill="url(#bf)"/><path d="M80.764,25.02c-.4.1-.7.3-.5.6a2.877,2.877,0,0,1,1.4,1.2c.5.8.7.3.9,0s-.3-1.2-.6-1.4c-.2-.3-1.2-.4-1.2-.4Z" fill="url(#bg)"/><path d="M80.264,25.319c0,.1-.1.1,0,.1a6.731,6.731,0,0,1,1.4,1.1c.2.3.2.4.3.5s.2.3.2.1c-.1-.2-.3-.8-.6-1a1.529,1.529,0,0,0-.7-.5,2.855,2.855,0,0,0-.6-.3Z" fill="url(#bh)"/><path d="M84.664,19.72c.3.3.4.7.1.7a3.471,3.471,0,0,0-1.9.2c-.9.4-.8-.2-.8-.5,0-.4.9-.8,1.3-.8a5,5,0,0,1,1.3.4Z" fill="url(#bi)"/><path d="M84.864,20.22c0,.1.1.1-.1.1a5.013,5.013,0,0,0-1.7.1c-.3.1-.4.2-.5.2s-.3.1-.2,0a3.819,3.819,0,0,1,1.1-.5,1.378,1.378,0,0,1,.9,0,2.046,2.046,0,0,1,.5.1Z" fill="url(#bj)"/><path d="M83.664,23.72c0,.5-.1.8-.4.6a3.827,3.827,0,0,0-1.6-1.1c-.9-.2-.5-.6-.3-.9.3-.3,1.2,0,1.5.2.4.2.8,1.2.8,1.2Z" fill="url(#bk)"/><path d="M83.464,24.22c0,.1,0,.1-.1,0a8.553,8.553,0,0,0-1.4-1c-.3-.1-.4-.1-.5-.2-.1,0-.3-.1-.1-.1a3.453,3.453,0,0,1,1.2.3,4.191,4.191,0,0,1,.7.5,1.249,1.249,0,0,0,.2.5Z" fill="url(#bl)"/><path d="M94.664,23.319c1.6,2,3,3,4,4.3a8.55,8.55,0,0,1,1.8,3.7c1.2,4.8,1,7.9-.1,5.1-1.3-3.2-3.7-3.6-9.5-5,7.5.9,10.1.3,4.1-4.3,2.8,2.3,2.5,1.1,2.7,1.1s-4.6-5.8-4.8-6.4C97.563,27.62,94.664,23.319,94.664,23.319Z" opacity="0.2" fill="url(#bm)"/><path d="M48.764,88.619c5.2-3,2.2-11.9,1.6-16.7-.6-4.4,1.3-9.4,2.8-12.2-4,13.3,1.6,22.4,2.1,24.7a53.185,53.185,0,0,1,.7,9c-.3-3.8-.9-5-2.3-5.8S48.764,88.619,48.764,88.619Z" fill="url(#bn)"/><path d="M76.264,18.62a.1.1,0,0,0-.1.1c-1.9,1-4.5,2.2-1.4,1.3s4-1,4.8-1.2c.7-.2-.9-.2-1.1-.2-.2-.1.5-.6,2.4-1.3s.8-.7-1.1,0" opacity="0.5" fill="url(#bo)"/><path d="M74.164,21.22c-2.5,1.1-3.4,1.4-4.3,2.4-.9.9-2.6,3-2.2,2.9.3-.1,2.8-.2,1.1.4-2,.7-1.6,1.1-2.6,2.4s-1.6,2-.8,2-1,.6-1.6,1.5c-.6.8-.9,1.5-.8,1.6s-.2.7-.2.7,5.7-1.9,7.3-2c1.7-.1-2.1-.2-3.9.2s-.6-1.1-.1-1.5.4-.7.2-1c-.3-.3,1.8-2.6,1.8-2.6s.9-1.1,4.8-1.5,3.4-.3,3.5-.6-.3-.3-2-.1a5.923,5.923,0,0,1-3.1-.3c-.5-.2,1.2-.9,1.4-1.3.2-.3-.2-.4-.5-.7-.3-.4.4-.8.9-.8a7.622,7.622,0,0,0,3-.3c2.2-.6.5-.2-1.1-.1-1.6.2-.9-.3-1.6-.2-.8.2.9-.6,1.2-.9s.5-.3.9-.6-.3,0-.5.2a4.561,4.561,0,0,0-.8.2Z" opacity="0.5" fill="url(#bp)"/><path d="M71.164,59.62c3.3-1.3,6-2.2,6-2.2l3.2-1.1s-.2-.2,1.3-.8,1.6-.4,2,.1,8.7,1.8,10.5,2.4,2.9,1.4,1.7,1.3c-1.3-.1-10.5-2.4-11.7-2.8-1.2-.5-1-1-2.1-.2s-9.1,3-8.9,3,7.5-1.4,8.5-1.6a8.265,8.265,0,0,1,4,.4,37,37,0,0,0,6.1,1.6,34.566,34.566,0,0,1-6.7,0c-1.6-.4-4.8.2-6.5.9-1.6.7.9-.8,1.9-1.1s5.6,0,6.8.1c1.3,0-1.8-.9-3-1.2a12.3,12.3,0,0,0-4.6.3c-1.5.3-6.1,1.1-7.2,1.2s-1.3-.3-1.3-.3Z" opacity="0.25" fill="url(#bq)"/><path d="M83.364,65.72c-6.8,0-10.2-2.4-11.2-2.6a18.969,18.969,0,0,0,8.1,4.4,17.732,17.732,0,0,0,6.2.6c2-.2,4.6-2.6,2.5-2.6C86.664,65.52,86.864,65.72,83.364,65.72Z" fill="url(#br)"/><path d="M72.264,63.12c.3.3,5.2,5.6,14.9,5,0,0,1.6-.3,1.8-.3s.7.7.5.7c-12.4,3.3-17.2-5.4-17.2-5.4Z" fill="url(#bs)"/><path d="M81.063,48.819c.5-1.9.7-5.1-1.1-7.2-1.8-2-5.6-4.4-9-3.3-3.3,1.1-7.4,4.8-7.9,7.7s-1.1,5.1-.6,7,.3,3.2,2.4,3.5,9-.7,11.3-2.7a23.135,23.135,0,0,0,3.3-3.3C80.163,49.719,81.063,48.819,81.063,48.819Z" fill="url(#bt)"/><path d="M72.364,43.919c-1.6.3-3.7,2.2-5.1,4.3-1.3,2.1-1.8,6.6,3.6,6.5,2.6-.1,6.3-.6,7.8-4.6C79.063,49.02,76.864,43.02,72.364,43.919Z" fill="#fff"/><ellipse cx="4.8" cy="3.6" rx="4.8" ry="3.6" transform="translate(68.967 54.045) rotate(-88.865)" fill="#8dc641"/><path d="M72.064,49.22a1,1,0,0,1-.4-.1h-.2C71.664,49.12,71.964,49.22,72.064,49.22Zm.1.1Zm.1,1.7h0v0Zm.3-1.7ZM72.264,49.319ZM73.364,49.819Zm-.8-1.8ZM72.364,47.419Zm-.1.6Zm.1.3ZM72.264,50.319Zm.1.9c0,.1,0,.1-.1.1l.1-.1C72.264,51.319,72.264,51.22,72.364,51.22ZM72.464,51.02Zm-.5.7v-.1a.1.1,0,0,1,.1-.1v.1A.1.1,0,0,1,71.964,51.72Zm1.2-1.5h0Z" fill="#8bd7f5"/><ellipse cx="3.7" cy="2.8" rx="3.7" ry="2.8" transform="translate(69.793 52.765) rotate(-88.848)" fill="#fff"/><ellipse cx="3.7" cy="2.799" rx="3.7" ry="2.799" transform="translate(69.992 52.465) rotate(-88.865)" fill="#010101"/><path d="M71.664,47.919a8.305,8.305,0,0,1,1.4-1.3c.5-.5-.2-.9-.6-.8-.9.1-1.3.9-1.6,1.7,0,0,.1,1.1.8.4Z" fill="#fff"/><path d="M76.063,46.62a5.853,5.853,0,0,1,1.3-.2c-1.1-1.6-2.8-2.9-5.1-2.4-1.6.3-3.7,2.2-5.1,4.3a2.994,2.994,0,0,0-.4.8,8.466,8.466,0,0,1,1.7-.5,26.729,26.729,0,0,1,7.6-2Z" fill="#fff" opacity="0.25"/><path d="M78.364,49.22a.794.794,0,0,1,1,.2c.2.2.2.4-.2.7-.4.4-.9.8-1,.4a7,7,0,0,1,.2-1.3Z" fill="#fff"/><path d="M78.664,50.12c-.6.7-1.6,4.5-7.8,4.6s-6-.2-6.6,0,.1,0,2.1.4,8.3.9,9.7.1a8.706,8.706,0,0,0,3-3.2c.9-2.7-.4-1.9-.4-1.9Z" fill="url(#bu)"/><path d="M84.364,48.819c-.5-1.9-.7-5.1,1.1-7.2,1.8-2,5.6-4.4,9-3.3,3.3,1.1,7.4,4.8,7.9,7.7s1.1,5.1.6,7-.3,3.2-2.4,3.5-9-.7-11.3-2.7a23.135,23.135,0,0,1-3.3-3.3c-.7-.8-1.6-1.7-1.6-1.7Z" fill="url(#bv)"/><path d="M93.063,43.919c1.6.3,3.7,2.2,5.1,4.3,1.3,2.1,1.8,6.6-3.5,6.5-2.6-.1-6.3-.6-7.8-4.6-.5-1.1,1.7-7.1,6.2-6.2Z" fill="#fff"/><ellipse cx="4.8" cy="3.6" rx="4.8" ry="3.6" transform="translate(96.23 44.538) rotate(88.865)" fill="#8dc641"/><path d="M93.364,49.22a.994.994,0,0,0,.4-.1h.2C93.764,49.12,93.464,49.22,93.364,49.22Zm-.1.1Zm-.2,1.7c.1,0,.1.1,0,0v0Zm-.2-1.7ZM93.164,49.319ZM92.063,49.819Zm.8-1.8ZM93.063,47.419Zm.1.6Zm-.1.3ZM93.164,50.319Zm-.1.9c0,.1,0,.1.1.1l-.1-.1C93.164,51.319,93.164,51.22,93.063,51.22ZM92.964,51.02Zm.4.7v-.1a.1.1,0,0,0-.1-.1v.1A.1.1,0,0,1,93.364,51.72Zm-1.1-1.5h0Z" fill="#8bd7f5"/><ellipse cx="3.7" cy="2.799" rx="3.7" ry="2.799" transform="translate(95.453 45.333) rotate(88.848)" fill="#fff"/><ellipse cx="3.7" cy="2.8" rx="3.7" ry="2.8" transform="translate(95.299 45.12) rotate(88.865)" fill="#010101"/><path d="M92.664,46.52a8.306,8.306,0,0,0-1.3,1.4c-.5.5-.9-.2-.8-.6.1-.9.9-1.3,1.7-1.6.1,0,1.1.2.4.8Z" fill="#fff"/><path d="M89.264,46.62a5.835,5.835,0,0,0-1.3-.2c1.1-1.6,2.8-2.9,5.1-2.4,1.6.3,3.7,2.2,5.1,4.3a2.96,2.96,0,0,1,.4.8,8.456,8.456,0,0,0-1.7-.5c-2.3-1.2-5.2-1.6-7.6-2Z" fill="#fff" opacity="0.25"/><path d="M87.063,49.22a.794.794,0,0,0-1,.2c-.2.2-.2.4.2.7.4.4.9.8,1,.4a6.91,6.91,0,0,0-.2-1.3Z" fill="#fff"/><path d="M86.764,50.12c.6.7,1.6,4.5,7.8,4.6s6-.2,6.6,0-.1,0-2.1.4-8.3.9-9.7.1a8.706,8.706,0,0,1-3-3.2c-.9-2.7.4-1.9.4-1.9Z" fill="url(#bw)"/><path d="M60.564,133.72c-.4.6-.4,1.1-.9,1.2s-8.3.5-10.2.1-.5-.5-.2-.7a2.973,2.973,0,0,1,1.9-.3,4.567,4.567,0,0,0,2-.2,2.978,2.978,0,0,1,2.2-.3c.6.3,1.5-.1,2.2-.3.5-.2.8-.7,1.7-.2.8.5.9.6,1,.4C61.164,132.319,60.564,133.72,60.564,133.72Z" opacity="0.25" fill="url(#bx)"/><path d="M90.864,105.22c-.1,0-3.6,5.1-3.6,5.1s.1.5.4.6,3.9,1.2,4.1,1.4c.3.2,2.8-2.8,3.1-3.4s-1-2-1.9-2.8a5.31,5.31,0,0,0-2.1-.9Z" fill="url(#by)"/><path d="M93.864,106.52c-.1,0-3,4.3-3,4.3s.1.5.3.5c.2.1,3.2,1,3.5,1.2s2.3-2.4,2.6-2.9-.8-1.7-1.6-2.3a5.048,5.048,0,0,0-1.8-.8Z" fill="url(#bz)"/><path d="M96.864,107.52c-.1,0-2.4,3.5-2.4,3.5s0,.4.2.4c.2.1,2.6.8,2.8,1,.2.1,1.9-1.9,2.1-2.3s-.7-1.4-1.3-1.9a2.649,2.649,0,0,0-1.4-.7Z" fill="url(#ca)"/><path d="M100.164,109.42c-.1,0-2.8,1.8-2.8,1.8s-.1.3.1.4c.1.1,1.7,1.4,1.8,1.5.1.2,1.9-.8,2.2-1.1.3-.2-.1-1.2-.4-1.8a4.4,4.4,0,0,0-.9-.8Z" fill="url(#cb)"/><path d="M106.164,94.72c.7.1,1.4.8,1.4,2.7.1,1.9-.4,1.1-.4,1.1l-.6-3.1Z" fill="#8dc641"/><path d="M107.563,97.22a5.112,5.112,0,0,0-.2-1.3,1.686,1.686,0,0,0-.7-.1l.2,1.2a2.547,2.547,0,0,1,.7.2Zm-.1.4c-.2-.1-.3-.1-.5-.2l.2,1.2s.4.8.4-.9A.1.1,0,0,0,107.464,97.619Z" fill="#8dc641"/><circle cx="1.5" cy="1.5" r="1.5" transform="translate(105.964 98.22)" fill="url(#cc)"/><path d="M106.764,100.819c-.5.5-.7,6.7-.8,8,0,1.3.4,1.2.6,1.6s.4-.3.5.1c0,.4.6-.3.6.1.1.4.5-.8.5-.1.1.7.5-.6.6-.1s.3-1.1.4-.6,0-1.2.2-.6c.1.5-.9-7.4-1.1-8.1s-1.5-.3-1.5-.3Z" fill="#8dc641"/><path d="M106.563,108.52a16.26,16.26,0,0,1,.4-4.9,8.47,8.47,0,0,1,1.2-2.8c-.4-.3-1.4,0-1.4,0-.5.5-.7,6.7-.8,8,0,1.3.4,1.2.6,1.6.1.1.1.1.2.1a15.262,15.262,0,0,1-.2-2Z" fill="#8dc641" opacity="0.5"/><path d="M108.364,101.119c-.1-.2-.2-.3-.4-.3a43.27,43.27,0,0,1,1.1,9.5c.1-.3.2-.8.3-.5.1.5,0-1.2.2-.6C109.563,109.619,108.563,101.72,108.364,101.119Z" fill="#8dc641"/><path d="M83.964,97.319l-1,1.6,2.8,6.2,4.4,8.8,1.5.7Z" fill="#989898"/><path d="M88.563,107.52c6.1-2.8,12.4-7.1,18.7-11.2l-1.7-2.1a126.377,126.377,0,0,1-18.3,10.9,25.686,25.686,0,0,1,1.3,2.4Z" fill="url(#cd)"/><path d="M88.964,104.819c0,.2.9.9,1.4,1.1.5.1.6-.1.6-.3,0-.1-1-.5-1.3-.8a.524.524,0,0,0-.7,0Z" fill="url(#ce)"/><path d="M90.063,104.319c0,.2.9.9,1.4,1.1.5.1.6-.1.6-.3,0-.1-1-.5-1.3-.8a.524.524,0,0,0-.7,0Z" fill="url(#cf)"/><path d="M91.164,103.819c0,.2.9.9,1.4,1.1.5.1.6-.1.6-.3s-1-.5-1.3-.8-.7,0-.7,0Z" fill="url(#cg)"/><path d="M92.264,103.02c0,.2.9.9,1.4,1.1.5.1.6-.1.6-.3,0-.1-1-.5-1.3-.8a.716.716,0,0,0-.7,0Z" fill="url(#ch)"/><path d="M93.464,102.42c0,.2.9.9,1.4,1.1.5.1.6-.1.6-.3s-1-.5-1.3-.8a.72.72,0,0,0-.7,0Z" fill="url(#ci)"/><path d="M94.563,101.72c0,.2.9.9,1.4,1.1.5.1.6-.1.6-.3,0-.1-1-.5-1.3-.8a.721.721,0,0,0-.7,0Z" fill="url(#cj)"/><path d="M95.764,101.02c0,.2.9.9,1.4,1.1.5.1.6-.1.6-.3,0-.1-1-.5-1.3-.8a.775.775,0,0,0-.7,0Z" fill="url(#ck)"/><path d="M96.864,100.319c0,.2.9.9,1.4,1.1.5.1.6-.1.6-.3,0-.1-1-.5-1.3-.8a.776.776,0,0,0-.7,0Z" fill="url(#cl)"/><path d="M97.964,99.619c0,.2.9.9,1.4,1.1.5.1.6-.1.6-.3,0-.1-1-.5-1.3-.8a.523.523,0,0,0-.7,0Z" fill="url(#cm)"/><path d="M99.063,98.92c0,.2.9.9,1.4,1.1s.6-.1.6-.3c0-.1-1-.5-1.3-.8a.522.522,0,0,0-.7,0Z" fill="url(#cn)"/><path d="M100.264,98.319c0,.2.9.9,1.4,1.1.5.1.6-.1.6-.3,0-.1-1-.5-1.3-.8a.524.524,0,0,0-.7,0Z" fill="url(#co)"/><path d="M101.264,97.52c0,.2.9.9,1.4,1.1.5.1.6-.1.6-.3s-1-.5-1.3-.8a.775.775,0,0,0-.7,0Z" fill="url(#cp)"/><path d="M102.464,96.72c0,.2.9.9,1.4,1.1s.6-.1.6-.3c0-.1-1-.5-1.3-.8s-.7,0-.7,0Z" fill="url(#cq)"/><path d="M103.563,96.02c0,.2.9.9,1.4,1.1.5.1.6-.1.6-.3,0-.1-1-.5-1.3-.8a.718.718,0,0,0-.7,0Z" fill="url(#cr)"/><path d="M104.563,95.22c0,.2.9.9,1.4,1.1.5.1.6-.1.6-.3,0-.1-1-.5-1.3-.8a.721.721,0,0,0-.7,0Z" fill="url(#cs)"/><path d="M87.063,104.319s-9.7,6-25,8.6a175,175,0,0,1-31,2.2,4.192,4.192,0,0,0-2,.6,1.144,1.144,0,0,0-.1,1.7,2.871,2.871,0,0,0,2,.9c.8.1,45.3,1.4,57.9-10l-1.8-4Z" fill="#010101"/><path d="M87.063,104.319s-9.7,6-25,8.6a175,175,0,0,1-31,2.2,4.192,4.192,0,0,0-2,.6,1.144,1.144,0,0,0-.1,1.7,2.871,2.871,0,0,0,2,.9c.8.1,45.3,1.4,57.9-10l-1.8-4Z"/><path d="M85.563,109.52l-.9,15.1s1.9.3,2,.3-.3-15.6-.3-15.6l-.8.2Z" fill="url(#ct)"/><path d="M85.264,123.22a8.331,8.331,0,0,1,.4,1.5c.2.1.4.1.5.3-.1-6.7-.6-15.5-.6-15.5l-.4.1-.5,13.1A.632.632,0,0,1,85.264,123.22Z" fill="#8dc641"/><path d="M84.864,109.52l-.8,22a16.766,16.766,0,0,1,1.8.5c.1.1-.3-22.7-.3-22.7l-.7.2Z" fill="url(#cu)"/><path d="M31.164,115.02h2.7l8.1,3.5h-3.2Z" fill="url(#cv)"/><path d="M42.164,114.819l1.2-.1.7,3.9-1.1-.1Z" fill="url(#cw)"/><path d="M49.764,114.319c.1,0,1.2-.1,1.2-.1s.2,4,.1,4-1.3.1-1.3.1v-4Z" fill="url(#cx)"/><path d="M55.864,113.72c.1,0,1.4-.2,1.4-.2l2,4.2c-.1,0-1.6-.1-1.6-.1Z" fill="url(#cy)"/><path d="M63.464,112.52c.1,0,1.5-.3,1.5-.3l2.8,4.3a10.094,10.094,0,0,1-1.7.3c0-.1-2.9-4.2-2.9-4.2l.3-.1Z" fill="url(#cz)"/><path d="M82.563,106.52l2-1s2.8,2.7,2.6,4.6c0,0-1.5.9-1.6.9-.1.1-2.7-4.1-2.8-4.2C82.664,106.52,82.563,106.52,82.563,106.52Z" fill="#8dc641"/><path d="M84.563,105.72c.1,0,.4.1.4.2,0,0,.7.5.6.9s-.9,1-1,1.2a5.733,5.733,0,0,0-.2,1,7.656,7.656,0,0,1,.1,1.6c-.1.1-1.1,1.2-1.1,1.2a7.631,7.631,0,0,1-1.3.6c.1-.1,1.8-2.6,1.9-2.8a3.65,3.65,0,0,0-.2-1.5c-.1-.1-.8-1.6-.8-1.6m-51.7,8.7,4.7,3.2h2.5l-7-3.2Z" fill="#010101" opacity="0.5"/><path d="M43.364,115.02h.3l2,3.2-1.7.1-.6-3.3" fill="#010101"/><path d="M50.964,114.42h.4l.8,3.5-1.1.1Zm6.4-.7.4-.1,3.2,3.5-1.9.2Zm7.7-1.3,1-.2,4.6,3.4-3.1.6Z" fill="#010101" opacity="0.5"/><path d="M84.464,97.119l-.5.2s7.7,17.3,7.7,17.2.8-.5.8-.5l-8-16.9Z" fill="url(#da)"/><path d="M86.364,108.02a12.773,12.773,0,0,1,.7,1.6c0,.3-.1.4-.7.7s-.7.3-.9-.1-.3-.6-.6-1.1.7-.5,1-.6Z" opacity="0.5" fill="url(#db)"/><path d="M100.864,98.72c-.5.3-1,.6-1.4.9-1.9,1.1-3.7,2.4-5.6,3.5a26.771,26.771,0,0,1-2.9,1.6,8.525,8.525,0,0,1-3.1.9h-.1a18.025,18.025,0,0,1,1,1.8c6.1-2.8,12.4-7.1,18.7-11.2l-.8-.9c-2,1.2-3.9,2.3-5.8,3.4Z" opacity="0.5" fill="url(#dc)"/><path d="M78.264,104.22a15.8,15.8,0,0,1,3.1-1c.5,0,.4.5,1.3.7a9.134,9.134,0,0,0,1.5.3c.4,0,.4.4.4,1.1s-.5.8-1.6,1.1c-1,.3-2.6-.6-3.2-1a18.308,18.308,0,0,1-1.5-1.2Z" fill="url(#dd)"/><path d="M64.564,93.119c-.1,1.2-.5,12.4,4.5,16.3,3.7,2.8,2.4,1.4,2.4,1.4s2.3-5.1,3.8-5.9c1.6-.8,1.5-1,1.5-1a10.327,10.327,0,0,1-5.4-10.7h-6.8v-.1Z" fill="url(#de)"/><path d="M76.764,103.819a10.326,10.326,0,0,1-5.4-10.7h-6.8c0,.4-.1,1.8,0,3.6.1,0,.2.1.3.3.9,1,1.9,1.8,2.8,2.7.8.8,1.6,1.7,2.4,2.5a15.5,15.5,0,0,1,3,5.3,7.956,7.956,0,0,1,2.2-2.7c1.6-.8,1.5-1,1.5-1Z" opacity="0.5" fill="url(#df)"/><path d="M71.764,98.02a11.977,11.977,0,0,1-.4-4.8h-6.8v1.8a15.845,15.845,0,0,1,7.2,3Z" opacity="0.5" fill="url(#dg)"/><path d="M66.864,95.819c-.2-.1-1,.8-1.4,1.5s.3.8.4.9c.2.1.6-.9,1-1.3C67.664,95.92,66.864,95.819,66.864,95.819Z" fill="url(#dh)"/><path d="M65.364,96.119c-.1.2.6,1.1,1.2,1.7s.9-.1,1-.2-.7-.8-1.1-1.2C65.664,95.42,65.364,96.119,65.364,96.119Z" fill="url(#di)"/><path d="M65.464,95.92c-.1.1-.3.1.1.6,1.4,1.8,0,.1,0-.2s.2-.5.1-.5A.357.357,0,0,0,65.464,95.92Z" opacity="0.5" fill="url(#dj)"/><path d="M66.264,96.22h0c.1-.1.3.3.5.3a1.034,1.034,0,0,0,.4-.1,2.54,2.54,0,0,0-.2.5c0,.1-.6-.6-.7-.7h0Z" fill="url(#dk)"/><path d="M67.364,99.619c-.2-.1-.9.9-1.2,1.6a.532.532,0,0,0,.5.8c.2.1.5-.9.8-1.4.6-.9-.1-1-.1-1Z" fill="url(#dl)"/><path d="M65.864,100.119c-.1.2.7,1,1.3,1.5.7.5.8-.2.9-.4.1-.1-.8-.7-1.2-1.1-.8-.8-1,0-1,0Z" fill="url(#dm)"/><path d="M65.964,99.92c-.1.1-.3.2.2.6,1.6,1.6,0,.1,0-.2a.5.5,0,0,1,.1-.5.979.979,0,0,0-.3.1Z" opacity="0.5" fill="url(#dn)"/><path d="M66.864,100.119l.1-.1s.3.3.4.3a1.457,1.457,0,0,0,.4-.2,2.574,2.574,0,0,0-.2.5c-.1.1-.7-.4-.7-.5Z" fill="url(#do)"/><path d="M68.364,103.02c-.2,0-.6,1.1-.7,1.9s.6.6.7.7c.2,0,.2-1.1.4-1.6C69.064,102.92,68.364,103.02,68.364,103.02Z" fill="url(#dp)"/><path d="M66.964,103.92c-.1.2.9.8,1.7,1.1s.7-.4.8-.6-1-.5-1.5-.7C66.964,103.119,66.964,103.92,66.964,103.92Z" fill="url(#dq)"/><path d="M67.064,103.72c0,.1-.2.2.3.5,1.9,1.1,0,.1-.1-.2s0-.5-.1-.5c.1.1-.1.2-.1.2Z" opacity="0.5" fill="url(#dr)"/><path d="M67.964,103.619v-.1a1.23,1.23,0,0,0,.5.2.753.753,0,0,0,.3-.3s0,.4-.1.5-.7-.2-.7-.3Z" fill="url(#ds)"/><path d="M75.764,74.12l-.6-.4s-2.8,1.9-3.1,2.6c-.4.7-.4.8-.3,1.2.8,2.2,4.6,3.7,5.9,4.2,1.4.5,2.2-2.1,2.5-2.4s-3.9-2.2-4.7-4.3a1.3,1.3,0,0,1,.3-.9Z" fill="url(#dt)"/><path d="M75.664,74.12a3.256,3.256,0,0,0-.5-.3s-2.4,1.6,4.3,5.3c0,0,.4.1.3,0s-5.6-3.6-4.1-5Z" fill="#010101"/><path d="M72.064,76.22l-.8-.3s-2.9,3-3.2,3.9-.3,1.1,0,1.6c1.5,2.5,6.4,3.5,8.2,3.7,1.8.3,2.2-3.1,2.5-3.5s-5.2-1.7-6.7-4.2A1.512,1.512,0,0,1,72.064,76.22Z" fill="url(#du)"/><path d="M72.064,76.22a4.08,4.08,0,0,0-.8-.3s-2.5,2.6,6.5,5.5c0,0,.5,0,.4-.1C78.063,81.319,70.564,78.22,72.064,76.22Z" fill="#010101"/><path d="M68.364,79.319l-.9-.1s-3.2,3.7-3.5,4.8-.3,1.3.1,1.8c1.9,2.9,7.8,3.7,9.9,3.9s2.4-3.8,2.7-4.3c.4-.5-6.2-1.7-8.2-4.5a2.246,2.246,0,0,1-.1-1.6Z" fill="url(#dv)"/><path d="M68.364,79.319a3.445,3.445,0,0,0-.9-.1s-2.8,3.3,8,6.1c0,0,.6,0,.5-.1C75.764,85.119,66.664,81.72,68.364,79.319Z" fill="#010101"/><path d="M64.064,83.52l-.9.1s-2.8,4.9-2.9,6.2-.1,1.5.5,2.1c2.8,2.8,9.7,2.5,12.1,2.2,2.4-.2,1.9-4.8,2.2-5.5s-7.5-.6-10.3-3.3a3.141,3.141,0,0,1-.7-1.8Z" fill="url(#dw)"/><path d="M64.064,83.52c-.2-.1-.8.1-.8.1s-2.6,4.4,10.4,5.3c0,0,.7-.1.5-.2s-11.4-2-10.1-5.2Z" fill="#010101"/><path d="M77.964,78.02v.4l-1.5,2.2v.5l-2.7,3.3v.6l-2.7,2.9v.9s-.5,4-4,5.5c0,0,5.8.3,6.5-.3.7-.7,1.3-4.5,1.3-4.5s.5-.3.9-1.6a21.922,21.922,0,0,0,.6-2.5v-.3s-.3.8.6-.3a7.2,7.2,0,0,0,1.3-2.7c0-.1.2-.4.8-1.1a3.578,3.578,0,0,0,.9-1.5c-.1,0-2.1-1.5-2.1-1.5h.1Z" fill="#010101" opacity="0.5"/><path d="M75.164,73.819s-2.9,2.2-3,2.4-.9-.3-.9-.3l-3,3.5-.9-.2s-3.3,4.4-3.4,4.5a2.485,2.485,0,0,1-.8.1s-3,5.6-3,6.1.1,1.8.1,1.8,1.5,2.4,3.9-2.3a4.836,4.836,0,0,1,1.3-1.8l.8-.9,2.4-3.7,1.1-.6,2.3-3.3.9-.4,1.9-2.7.7-.1-.1-1.6Z" fill="#fff" opacity="0.25"/><path d="M71.364,111.02a3,3,0,0,0,1.8.8c.5.1.6.2.7,1.1s.3,1.5,0,1.6-1,.4-1,.6.8.5,1.4.7a2.561,2.561,0,0,0,2.1-.2,3.934,3.934,0,0,1,1.4-.8c.1,0,.2-.1.4-.1,1-.3,1-.6,1-.7.1-.2.1-.3.8-.3a1.29,1.29,0,0,0,1.1-.5c.3-.3.6-.3,1-.9a22.093,22.093,0,0,0,1.8-2.8c.4-.6-.8-2.9-1.5-3.8-.7-.8-2.8-1.3-3.7-1.5-2.1-.4-6.6,3.6-6.9,4.1s-.7,1.4-.5,1.8a1.588,1.588,0,0,1,.1.9Z" fill="url(#dx)"/><path d="M77.664,111.72c-.1.1-.2.1-.3.2a11.807,11.807,0,0,1,.1,2.5v.6l.4-.2-.1-2.4C77.764,112.22,77.664,111.92,77.664,111.72Z" fill="url(#dy)"/><path d="M79.464,110.42a.349.349,0,0,0-.2.1c.1,1.2.2,2.5.2,2.8v.6l.4-.2-.1-2.4A1.4,1.4,0,0,1,79.464,110.42Z" fill="url(#dz)"/><path d="M82.364,108.52c-.1.1-.2.1-.3.2.1,1.2.2,2.4.2,2.7v.6l.4-.2-.1-2.4a2.367,2.367,0,0,0-.2-.9Z" fill="url(#ea)"/><path d="M83.464,107.52c-1.1.9-2.2,1.7-3.4,2.5-.8.6-1.7,1.1-2.5,1.7a7.63,7.63,0,0,1-1.9,1.2v.3a8.758,8.758,0,0,1-.1,2.8,1.608,1.608,0,0,0,.9-.3,6.933,6.933,0,0,1,1.7-1c.9-.3,1-.6,1-.7.1-.2.1-.3.8-.3a1.29,1.29,0,0,0,1.1-.5c.3-.3.6-.3,1-.9a22.093,22.093,0,0,0,1.8-2.8c.3-.3,0-1.2-.4-2Z" opacity="0.8" fill="url(#eb)"/><path d="M75.563,116.02a21.356,21.356,0,0,0,.1-3.6,9.266,9.266,0,0,0-1.4-1.4c-.8-.6-1.8-1-2.6-1.7-.1-.1-.2-.2-.2-.3a1.884,1.884,0,0,0-.2,1.2,1.57,1.57,0,0,1,.1.9,3.008,3.008,0,0,0,1.8.8c.5.1.6.2.7,1.1s.3,1.5,0,1.6-1,.4-1,.6.8.5,1.4.7a6.207,6.207,0,0,0,1.3.1Z" fill="url(#ec)"/><path d="M69.264,109.819c-.1,0,1.3-5.5,6.3-6.2,2.8-.4,2.7.7,2.7.7s-6.4,3-7.1,6.9Z" fill="url(#ed)"/><path d="M72.164,109.42c2.4-.8,4.6-1.5,5.9-1a2.224,2.224,0,0,1,1.8,1.7,18.847,18.847,0,0,1,.1,3.3c0,.5.7.2,1,.2s.5-1.1.6-2.1a5.784,5.784,0,0,0-.5-3.6c-.5-.8-1.5-1.4-.8-2.1.7-.8,1.7-.7,1.4-.9a18.4,18.4,0,0,0-3-.7,13.7,13.7,0,0,0-4.5,2.2,8.81,8.81,0,0,0-2.1,2.6C71.964,109.52,72.164,109.42,72.164,109.42Z" opacity="0.25" fill="url(#ee)"/><path d="M71.864,109.52c2.4-.8,4.6-1.5,5.9-1s1.6,1,1.8,1.7a18.745,18.745,0,0,1,.1,3.3c-.1.5.7.2,1,.2s.5-1.1.6-2.1a5.7,5.7,0,0,0-.5-3.6c-.5-.8-1.5-1.4-.8-2.1.7-.8,1.7-.7,1.4-.9a18.445,18.445,0,0,0-3-.7,13.718,13.718,0,0,0-4.5,2.2,8.819,8.819,0,0,0-2.1,2.6C71.564,109.52,71.864,109.52,71.864,109.52Z" fill="url(#ef)"/><path d="M63.064,88.22c.2.1.2.5,0,1s-.5.7-.8.6c-.2-.1-.2-.5,0-1C62.564,88.42,62.864,88.119,63.064,88.22Z" fill="url(#eg)"/><path d="M62.964,88.319c.2.1.2.4,0,.8-.2.3-.4.5-.6.5-.2-.1-.2-.4,0-.8C62.464,88.42,62.764,88.22,62.964,88.319Z" fill="url(#eh)"/><path d="M66.864,83.22c.2.1.2.5,0,.8-.2.4-.5.6-.7.5s-.2-.5,0-.8C66.364,83.319,66.664,83.119,66.864,83.22Z" fill="url(#ei)"/><path d="M66.664,83.22c.2.1.2.4,0,.7-.1.3-.4.5-.5.4-.2-.1-.2-.4,0-.7A.889.889,0,0,1,66.664,83.22Z" fill="url(#ej)"/><path d="M70.764,79.52c.2.1.1.5-.1.8s-.5.5-.7.4-.1-.5.1-.8C70.364,79.619,70.664,79.42,70.764,79.52Z" fill="url(#ek)"/><path d="M70.664,79.619a.484.484,0,0,1-.1.6c-.2.2-.4.4-.6.3a.481.481,0,0,1,.1-.6C70.264,79.619,70.564,79.52,70.664,79.619Z" fill="url(#el)"/><path d="M74.464,76.52c.1.1.1.4-.2.7s-.5.4-.6.3-.1-.4.2-.7C74.064,76.52,74.364,76.42,74.464,76.52Z" fill="url(#em)"/><path d="M74.364,76.52c.1.1,0,.3-.1.5s-.4.3-.5.2,0-.3.1-.5S74.264,76.42,74.364,76.52Z" fill="url(#en)"/><path d="M69.664,109.02c-.1.3-.2.4-.1.5a14.206,14.206,0,0,0,1.5,1.1c.1,0,.1-.3.2-.5C71.364,110.02,69.664,109.02,69.664,109.02Z" fill="url(#eo)"/><path d="M70.064,108.119c-.1.3-.2.4-.1.5a14.285,14.285,0,0,0,1.5,1.1c.1,0,.1-.3.2-.5C71.764,109.119,70.064,108.119,70.064,108.119Z" fill="url(#ep)"/><path d="M70.564,107.119c-.1.3-.2.4-.1.5s1.3,1,1.3,1a1.438,1.438,0,0,1,.2-.4C72.064,108.02,70.564,107.119,70.564,107.119Z" fill="url(#eq)"/><path d="M71.164,106.319c-.1.3-.2.4-.1.4.1.1,1.3,1,1.3,1,.1,0,.1-.3.2-.4S71.164,106.319,71.164,106.319Z" fill="url(#er)"/><path d="M71.964,105.52c-.1.3-.2.4-.1.4a11.318,11.318,0,0,0,1.3,1c.1,0,.1-.3.2-.4A12.133,12.133,0,0,0,71.964,105.52Z" fill="url(#es)"/><path d="M72.764,104.92c-.1.2-.2.3-.1.4s1.2.9,1.2.9a1.425,1.425,0,0,1,.2-.4,10.235,10.235,0,0,0-1.3-.9Z" fill="url(#et)"/><path d="M73.664,104.319c-.1.2-.2.3-.1.4a9.434,9.434,0,0,0,1.2.9c.1,0,.1-.3.2-.4l-1.3-.9Z" fill="url(#eu)"/><path d="M74.764,103.819c-.1.2-.2.3-.1.4s1.2.9,1.2.9c.1,0,.1-.3.2-.4a10.136,10.136,0,0,0-1.3-.9Z" fill="url(#ev)"/><path d="M75.864,103.42c-.1.2-.2.3-.1.4a9.428,9.428,0,0,0,1.2.9c.1,0,.1-.2.1-.4C77.164,104.22,75.864,103.42,75.864,103.42Z" fill="url(#ew)"/><path d="M92.264,117.92c2.2-1.5,4.5-1.1,6.7-1.2s2.3-.1,3.1.7-.6,5.8-1.4,7.7a4.162,4.162,0,0,0-.3,3.2c.2.6,6.4.5,8.4,3.4.8,1.2.5,1.8,0,2.3a5.836,5.836,0,0,1-1,.8h-16.8s-1-.6-1.1-1.4a4.137,4.137,0,0,1,.3-2.5c.4-.6,2.3-8.8,1.5-11.8-.2-.4.6-1.2.6-1.2Z" fill="url(#ex)"/><path d="M92.464,118.22c-.2.3-.9-.1-.5,1.2.8,2.4-.5,7.6-.6,8.3-.1.6-.9,3.2-1.1,3.7s-.1,2.5.3,2.8c.4.4,15.1,0,15.1,0s-6.4-1.7-7.8-3.6c-1.3-1.9-1.7-6.6-1.1-9.3.6-2.6,1-4.6-1.5-4.1A12.507,12.507,0,0,0,92.464,118.22Z" opacity="0.5" fill="url(#ey)"/><path d="M91.664,121.52c-.2.3,8.6,3.8,8.8,4,.3.2.8,0,.4-.4s-8.9-4-9-4.1-.4,0-.4.1A1.466,1.466,0,0,0,91.664,121.52Z" fill="url(#ez)"/><path d="M91.664,121.22c-.2.3,8.6,3.8,8.8,4,.3.2.8,0,.4-.4s-8.9-4-9-4.1-.4,0-.4.1A1.466,1.466,0,0,0,91.664,121.22Z" fill="url(#fa)"/><path d="M90.563,130.02c.1.4,9-2.6,9.3-2.6s.6-.5,0-.6c-.5-.1-9.4,2.6-9.5,2.7-.1,0-.3.3-.2.4s.4.1.4.1Z" fill="url(#fb)"/><path d="M90.563,129.619c.1.4,9-2.6,9.3-2.6s.6-.5,0-.6c-.5-.1-9.4,2.6-9.5,2.7s-.3.3-.2.4.4.1.4.1Z" fill="url(#fc)"/><path d="M89.964,132.619c.1.4,10.1-3.7,10.4-3.7.4-.1.7-.6.1-.6s-10.5,3.8-10.6,3.8c-.2.1-.4.3-.3.4C89.563,132.619,89.964,132.619,89.964,132.619Z" fill="url(#fd)"/><path d="M89.563,132.52c.1.4,10.5-4,10.9-4,.4-.1.7-.6.1-.6s-10.7,3.8-10.9,3.8a.349.349,0,0,0-.1.5Z" fill="url(#fe)"/><path d="M108.464,131.92a1.641,1.641,0,0,1,.3,1.6c-.2.4-1,1-1.1,1.2-.1.1-16.9-.1-16.9-.2a114.4,114.4,0,0,0,12.9-.3c1.9-.1,3.8,1.2,4.9-.9a2.647,2.647,0,0,0-.1-1.4Z" fill="url(#ff)"/><path d="M93.364,79.72v8.7c0,.5-2.6,10.6-2.9,11.4s-2.6.9-2.7.8c-.1,0,7.6-11.1,4.3-13.8.4,0,1.6-5,.4-5.7s-2.1-.7-1.6-1a22.171,22.171,0,0,1,2.2-1.1,4.934,4.934,0,0,1,.3.7Z" fill="url(#fg)"/><path d="M76.964,86.619c-.5.9,2.4,2.4,10.1,2.6s-1.4-.8-4.3-1.6a43.972,43.972,0,0,0-5.8-1Zm-.5,1.6c-.4.9,2.4,2.4,10.1,2.6s-1.4-.8-4.3-1.6a33.446,33.446,0,0,0-5.8-1Z" fill="#1a1a1a"/><path d="M76.864,89.819c-.4.9,2.4,2.4,10.1,2.6s-1.4-.8-4.3-1.6a33.558,33.558,0,0,0-5.8-1Z" fill="#1a1a1a"/><path d="M76.464,91.02c-.5.9,2.4,2.4,10.1,2.6s-1.4-.8-4.3-1.6a46.519,46.519,0,0,0-5.8-1Zm-.2,2c-.5.9,2.4,2.4,10.1,2.6s-1.4-.8-4.3-1.6a31.984,31.984,0,0,0-5.8-1Z" fill="#1a1a1a"/><path d="M76.264,94.52c-.5.9,2.4,2.4,10.1,2.6s-1.4-.8-4.3-1.6a31.984,31.984,0,0,0-5.8-1Z" fill="#1a1a1a" opacity="0.5"/><g opacity="0.25"><path d="M90.563,89.22a2.277,2.277,0,0,0,2.4-2.3,4.131,4.131,0,0,0-1.4.8C90.964,88.52,88.864,89.22,90.563,89.22Zm0,1.6a2.277,2.277,0,0,0,2.4-2.3,4.152,4.152,0,0,0-1.4.8C90.964,90.02,88.864,90.819,90.563,90.819Z" fill="#fff" opacity="0.5"/><path d="M92.764,90.119a4.136,4.136,0,0,0-1.4.8c-.7.7-2.7,1.4-1,1.4a2.969,2.969,0,0,0,1-.2c-.7.7-2.7,1.4-1,1.4a2.277,2.277,0,0,0,2.4-2.3,1.01,1.01,0,0,0-.5.2A1.906,1.906,0,0,0,92.764,90.119Zm-2.5,5.4a2.277,2.277,0,0,0,2.4-2.3,4.152,4.152,0,0,0-1.4.8C90.563,94.819,88.563,95.52,90.264,95.52Z" fill="#fff" opacity="0.5"/><path d="M90.063,97.119a2.277,2.277,0,0,0,2.4-2.3,4.152,4.152,0,0,0-1.4.8C90.464,96.319,88.464,97.02,90.063,97.119Z" fill="#fff" opacity="0.5"/></g></g></svg>